<svg id="f3a11459-bc77-4dfa-8bf0-18f842dd2b0c" data-name="Layer 1" xmlns="http://www.w3.org/2000/svg" width="70" height="71.5" viewBox="0 0 70 71.5"><defs><style>.aa39ea18-7c48-4c0e-a251-566117758772{fill:#2d95e5;}.e995f957-6fc6-4fcf-b7b5-ce12ddc23ed1{fill:#2d2d2d;}.a42e5130-0fa7-4587-aa46-41693d01713b,.b9cb5917-f55f-4918-a32a-effa41877167{fill:#8fd8f2;}.a42e5130-0fa7-4587-aa46-41693d01713b,.a99d3c13-73fb-459e-b953-76b6fbc8bf60,.f5a711f2-99a5-485b-9678-9a2a837d3312{stroke:#2d2d2d;stroke-miterlimit:10;}.a99d3c13-73fb-459e-b953-76b6fbc8bf60{fill:#fff;}.f5a711f2-99a5-485b-9678-9a2a837d3312{fill:none;stroke-width:3px;}</style></defs><rect class="aa39ea18-7c48-4c0e-a251-566117758772" x="1.5" y="10.5" width="43" height="47" rx="0.5"/><path class="e995f957-6fc6-4fcf-b7b5-ce12ddc23ed1" d="M44,11V57H2V11H44m0-1H2a1,1,0,0,0-1,1V57a1,1,0,0,0,1,1H44a1,1,0,0,0,1-1V11a1,1,0,0,0-1-1Z"/><path class="b9cb5917-f55f-4918-a32a-effa41877167" d="M2.62,60.5A2.12,2.12,0,0,1,.5,58.38V54.94a.5.5,0,0,1,.5-.5H5.22a.56.56,0,0,0,.56-.56v-4a.56.56,0,0,0-.56-.56H1a.5.5,0,0,1-.5-.5V43a.5.5,0,0,1,.5-.5H5.22A.56.56,0,0,0,5.78,42v-4a.57.57,0,0,0-.56-.57H1a.5.5,0,0,1-.5-.5V31.13a.5.5,0,0,1,.5-.5H5.22a.57.57,0,0,0,.56-.57V26a.56.56,0,0,0-.56-.56H1A.5.5,0,0,1,.5,25V19.22a.5.5,0,0,1,.5-.5H5.22a.56.56,0,0,0,.56-.56v-4a.56.56,0,0,0-.56-.56H1a.5.5,0,0,1-.5-.5V9.62A2.12,2.12,0,0,1,2.62,7.5H43.38A2.12,2.12,0,0,1,45.5,9.62v3.44a.5.5,0,0,1-.5.5H40.78a.56.56,0,0,0-.56.56v4a.56.56,0,0,0,.56.56H45a.5.5,0,0,1,.5.5V25a.5.5,0,0,1-.5.5H40.78a.56.56,0,0,0-.56.56v4a.57.57,0,0,0,.56.57H45a.5.5,0,0,1,.5.5v5.74a.5.5,0,0,1-.5.5H40.78a.57.57,0,0,0-.56.57v4a.56.56,0,0,0,.56.56H45a.5.5,0,0,1,.5.5v5.75a.5.5,0,0,1-.5.5H40.78a.56.56,0,0,0-.56.56v4a.56.56,0,0,0,.56.56H45a.5.5,0,0,1,.5.5v3.44a2.12,2.12,0,0,1-2.12,2.12Z"/><path class="e995f957-6fc6-4fcf-b7b5-ce12ddc23ed1" d="M43.38,8A1.63,1.63,0,0,1,45,9.62v3.44H40.78a1.07,1.07,0,0,0-1.06,1.06v4a1.07,1.07,0,0,0,1.06,1.06H45V25H40.78A1.06,1.06,0,0,0,39.72,26v4a1.07,1.07,0,0,0,1.06,1.07H45v5.74H40.78a1.07,1.07,0,0,0-1.06,1.07v4A1.06,1.06,0,0,0,40.78,43H45v5.75H40.78a1.07,1.07,0,0,0-1.06,1.06v4a1.07,1.07,0,0,0,1.06,1.06H45v3.44A1.63,1.63,0,0,1,43.38,60H2.62A1.63,1.63,0,0,1,1,58.38V54.94H5.22a1.07,1.07,0,0,0,1.06-1.06v-4a1.07,1.07,0,0,0-1.06-1.06H1V43H5.22A1.06,1.06,0,0,0,6.28,42v-4a1.07,1.07,0,0,0-1.06-1.07H1V31.13H5.22a1.07,1.07,0,0,0,1.06-1.07V26A1.06,1.06,0,0,0,5.22,25H1V19.22H5.22a1.07,1.07,0,0,0,1.06-1.06v-4a1.07,1.07,0,0,0-1.06-1.06H1V9.62A1.63,1.63,0,0,1,2.62,8H43.38m0-1H2.62A2.63,2.63,0,0,0,0,9.62v3.44a1,1,0,0,0,1,1H5.22a.06.06,0,0,1,.06.06v4a.06.06,0,0,1-.06.06H1a1,1,0,0,0-1,1V25a1,1,0,0,0,1,1H5.22a.06.06,0,0,1,.06.06v4a.07.07,0,0,1-.06.07H1a1,1,0,0,0-1,1v5.74a1,1,0,0,0,1,1H5.22a.07.07,0,0,1,.06.07v4a.06.06,0,0,1-.06.06H1a1,1,0,0,0-1,1v5.75a1,1,0,0,0,1,1H5.22a.06.06,0,0,1,.06.06v4a.06.06,0,0,1-.06.06H1a1,1,0,0,0-1,1v3.44A2.63,2.63,0,0,0,2.62,61H43.38A2.63,2.63,0,0,0,46,58.38V54.94a1,1,0,0,0-1-1H40.78a.06.06,0,0,1-.06-.06v-4a.06.06,0,0,1,.06-.06H45a1,1,0,0,0,1-1V43a1,1,0,0,0-1-1H40.78a.06.06,0,0,1-.06-.06v-4a.07.07,0,0,1,.06-.07H45a1,1,0,0,0,1-1V31.13a1,1,0,0,0-1-1H40.78a.07.07,0,0,1-.06-.07V26a.06.06,0,0,1,.06-.06H45a1,1,0,0,0,1-1V19.22a1,1,0,0,0-1-1H40.78a.06.06,0,0,1-.06-.06v-4a.06.06,0,0,1,.06-.06H45a1,1,0,0,0,1-1V9.62A2.63,2.63,0,0,0,43.38,7Z"/><rect class="a42e5130-0fa7-4587-aa46-41693d01713b" x="53.5" y="0.5" width="16" height="6" rx="1.96"/><path class="a99d3c13-73fb-459e-b953-76b6fbc8bf60" d="M55.5,6.5h12a0,0,0,0,1,0,0v8.11a1.89,1.89,0,0,1-1.89,1.89H57.39a1.89,1.89,0,0,1-1.89-1.89V6.5A0,0,0,0,1,55.5,6.5Z"/><path class="a99d3c13-73fb-459e-b953-76b6fbc8bf60" d="M57.5,16.5h8a0,0,0,0,1,0,0v1.32a1.68,1.68,0,0,1-1.68,1.68H59.18a1.68,1.68,0,0,1-1.68-1.68V16.5A0,0,0,0,1,57.5,16.5Z"/><rect class="b9cb5917-f55f-4918-a32a-effa41877167" x="15.5" y="7.5" width="15" height="53" rx="0.5"/><path class="e995f957-6fc6-4fcf-b7b5-ce12ddc23ed1" d="M30,8V60H16V8H30m0-1H16a1,1,0,0,0-1,1V60a1,1,0,0,0,1,1H30a1,1,0,0,0,1-1V8a1,1,0,0,0-1-1Z"/><path class="f5a711f2-99a5-485b-9678-9a2a837d3312" d="M33,60h0A10,10,0,0,0,43,70h8.5a10,10,0,0,0,10-10V19.55"/><circle class="b9cb5917-f55f-4918-a32a-effa41877167" cx="15.5" cy="52.5" r="2"/><path class="e995f957-6fc6-4fcf-b7b5-ce12ddc23ed1" d="M15.5,51A1.5,1.5,0,1,1,14,52.5,1.5,1.5,0,0,1,15.5,51m0-1A2.5,2.5,0,1,0,18,52.5,2.5,2.5,0,0,0,15.5,50Z"/><circle class="b9cb5917-f55f-4918-a32a-effa41877167" cx="30.5" cy="52.5" r="2"/><path class="e995f957-6fc6-4fcf-b7b5-ce12ddc23ed1" d="M30.5,51A1.5,1.5,0,1,1,29,52.5,1.5,1.5,0,0,1,30.5,51m0-1A2.5,2.5,0,1,0,33,52.5,2.5,2.5,0,0,0,30.5,50Z"/><circle class="b9cb5917-f55f-4918-a32a-effa41877167" cx="23" cy="52.5" r="2"/><path class="e995f957-6fc6-4fcf-b7b5-ce12ddc23ed1" d="M23,51a1.5,1.5,0,1,1-1.5,1.5A1.5,1.5,0,0,1,23,51m0-1a2.5,2.5,0,1,0,2.5,2.5A2.5,2.5,0,0,0,23,50Z"/></svg>