<svg id="b40f3e4c-4131-4705-a886-dce7458ab01e" data-name="Layer 1" xmlns="http://www.w3.org/2000/svg" width="76.31" height="85.95" viewBox="0 0 76.31 85.95"><defs><style>.af5e6d0a-423c-46fd-9f7c-5e3d010fd283,.b5812fc6-3295-44b4-93ed-6efa8496b8ea{fill:#8fd8f2;}.ffba9fb9-1b19-4fea-a237-05583a61744f{fill:#2d2d2d;}.afef3461-289d-4aed-9c22-01ed034b38ca,.b24f2b36-6085-409b-8fa3-046051caa074{fill:#fff;}.a0c89e04-8f60-4350-adab-8e12963dd3c7{fill:#2d95e5;}.afef3461-289d-4aed-9c22-01ed034b38ca,.b5812fc6-3295-44b4-93ed-6efa8496b8ea{stroke:#2d2d2d;stroke-linecap:round;stroke-linejoin:round;}</style></defs><rect class="af5e6d0a-423c-46fd-9f7c-5e3d010fd283" x="0.5" y="4.63" width="75.31" height="80.82" rx="3.83"/><path class="ffba9fb9-1b19-4fea-a237-05583a61744f" d="M72,5.13a3.33,3.33,0,0,1,3.33,3.33V81.62A3.34,3.34,0,0,1,72,85H4.33A3.34,3.34,0,0,1,1,81.62V8.46A3.33,3.33,0,0,1,4.33,5.13H72m0-1H4.33A4.33,4.33,0,0,0,0,8.46V81.62A4.34,4.34,0,0,0,4.33,86H72a4.34,4.34,0,0,0,4.33-4.33V8.46A4.33,4.33,0,0,0,72,4.13Z"/><rect class="b24f2b36-6085-409b-8fa3-046051caa074" x="6" y="10.13" width="64.3" height="69.81" rx="0.5"/><path class="ffba9fb9-1b19-4fea-a237-05583a61744f" d="M69.81,10.63V79.44H6.5V10.63H69.81m0-1H6.5a1,1,0,0,0-1,1V79.44a1,1,0,0,0,1,1H69.81a1,1,0,0,0,1-1V10.63a1,1,0,0,0-1-1Z"/><path class="a0c89e04-8f60-4350-adab-8e12963dd3c7" d="M24.36,12.51a4.6,4.6,0,0,1-4.59-4.6V1a.5.5,0,0,1,.5-.5H56.05a.5.5,0,0,1,.5.5V7.91a4.61,4.61,0,0,1-4.6,4.6Z"/><path class="ffba9fb9-1b19-4fea-a237-05583a61744f" d="M56.05,1V7.91A4.1,4.1,0,0,1,52,12H24.36a4.09,4.09,0,0,1-4.09-4.1V1H56.05m0-1H20.27a1,1,0,0,0-1,1V7.91A5.1,5.1,0,0,0,24.36,13H52a5.11,5.11,0,0,0,5.1-5.1V1a1,1,0,0,0-1-1Z"/><rect class="af5e6d0a-423c-46fd-9f7c-5e3d010fd283" x="12.89" y="18.39" width="24.39" height="24.39" rx="0.5"/><path class="ffba9fb9-1b19-4fea-a237-05583a61744f" d="M36.78,18.89V42.28H13.39V18.89H36.78m0-1H13.39a1,1,0,0,0-1,1V42.28a1,1,0,0,0,1,1H36.78a1,1,0,0,0,1-1V18.89a1,1,0,0,0-1-1Z"/><polyline class="b5812fc6-3295-44b4-93ed-6efa8496b8ea" points="19.58 31.96 23.71 36.09 30.59 23.71"/><line class="afef3461-289d-4aed-9c22-01ed034b38ca" x1="44.35" y1="23.71" x2="63.61" y2="23.71"/><line class="afef3461-289d-4aed-9c22-01ed034b38ca" x1="44.35" y1="33.34" x2="63.61" y2="33.34"/><line class="afef3461-289d-4aed-9c22-01ed034b38ca" x1="44.35" y1="42.97" x2="63.61" y2="42.97"/><line class="afef3461-289d-4aed-9c22-01ed034b38ca" x1="12.7" y1="52.61" x2="63.61" y2="52.61"/><line class="afef3461-289d-4aed-9c22-01ed034b38ca" x1="12.7" y1="62.24" x2="63.61" y2="62.24"/><line class="afef3461-289d-4aed-9c22-01ed034b38ca" x1="12.7" y1="71.87" x2="63.61" y2="71.87"/></svg>