<svg id="e50f3ea5-1fe1-4ac7-aee8-da4c030de7fe" data-name="Icon" xmlns="http://www.w3.org/2000/svg" width="150" height="150" viewBox="0 0 150 150"><defs><style>.b3b9b695-b702-4c3a-818e-07f1fd8f6a42,.fb50540c-fbf5-46a0-bb62-b20bb2307a1e{fill:#2d95e5;}.a1a1b5c5-7cd3-469c-a30d-e28b539d8bf0,.a8b3ca7b-2667-406f-b47d-4ff2b18b277f{fill:#2d2d2d;}.a0a7e6ec-3372-418d-8f2b-83b0676c9f2a,.e9e0a748-d8f0-487a-8ed7-7032f03cc092{fill:#8fd8f2;}.a0a7e6ec-3372-418d-8f2b-83b0676c9f2a,.a1a1b5c5-7cd3-469c-a30d-e28b539d8bf0,.b421aa76-0faa-4fef-be18-98705eaf2606,.fb50540c-fbf5-46a0-bb62-b20bb2307a1e{stroke:#2d2d2d;stroke-linecap:round;stroke-linejoin:round;}.a3444cfa-e84a-4466-b6f6-cc524babeb58,.b421aa76-0faa-4fef-be18-98705eaf2606{fill:#fff;}</style></defs><path class="b3b9b695-b702-4c3a-818e-07f1fd8f6a42" d="M93.37,93.21a4.68,4.68,0,0,1-4.67-4.68V46.45a.5.5,0,0,1,.5-.5h4.17a.5.5,0,0,1,.5.5V92.71A.5.5,0,0,1,93.37,93.21Z"/><path class="a8b3ca7b-2667-406f-b47d-4ff2b18b277f" d="M93.37,46.45V92.71a4.18,4.18,0,0,1-4.17-4.18V46.45h4.17m0-1H89.2a1,1,0,0,0-1,1V88.53a5.18,5.18,0,0,0,5.17,5.18,1,1,0,0,0,1-1V46.45a1,1,0,0,0-1-1Z"/><path class="e9e0a748-d8f0-487a-8ed7-7032f03cc092" d="M69.94,67a.5.5,0,0,1-.34-.13.51.51,0,0,1-.16-.37v-16a.5.5,0,0,1,.5-.5H90.73a14.48,14.48,0,0,1,13.42,9.2l1.59,4.09a.52.52,0,0,1,0,.44.53.53,0,0,1-.39.24Z"/><path class="a8b3ca7b-2667-406f-b47d-4ff2b18b277f" d="M90.73,50.5a13.91,13.91,0,0,1,13,8.88l1.58,4.09L69.94,66.53v-16H90.73m0-1H69.94a1,1,0,0,0-1,1v16a1,1,0,0,0,.33.74,1,1,0,0,0,.67.26H70l35.33-3.06a1,1,0,0,0,.76-.47,1,1,0,0,0,.08-.89L104.62,59A15,15,0,0,0,90.73,49.5Z"/><path class="e9e0a748-d8f0-487a-8ed7-7032f03cc092" d="M57.58,67a.49.49,0,0,1-.5-.5v-16a.5.5,0,0,1,.5-.5H71a14.48,14.48,0,0,1,13.42,9.2L86,63.29a.5.5,0,0,1-.42.68Z"/><path class="a8b3ca7b-2667-406f-b47d-4ff2b18b277f" d="M71,50.5A13.89,13.89,0,0,1,84,59.38l1.59,4.09-28,3.06v-16H71m0-1H57.58a1,1,0,0,0-1,1v16a1,1,0,0,0,.33.75,1,1,0,0,0,.67.25h.11l28-3.07A1,1,0,0,0,86.4,64a1,1,0,0,0,.08-.88L84.9,59A15,15,0,0,0,71,49.5Z"/><path class="a1a1b5c5-7cd3-469c-a30d-e28b539d8bf0" d="M124.46,99.42a7.8,7.8,0,1,0-7.79,7.79,7.8,7.8,0,0,0,7.79-7.79"/><path class="a1a1b5c5-7cd3-469c-a30d-e28b539d8bf0" d="M54.2,91.62h3.23c3,0,5.38,3.49,5.38,7.8s-2.41,7.79-5.38,7.79H54.2c-3,0-5.37-3.49-5.37-7.79s2.41-7.8,5.37-7.8"/><path class="a1a1b5c5-7cd3-469c-a30d-e28b539d8bf0" d="M64.83,91.62h3.23c3,0,5.37,3.49,5.37,7.8s-2.41,7.79-5.37,7.79H64.83c-3,0-5.37-3.49-5.37-7.79s2.4-7.8,5.37-7.8"/><path class="fb50540c-fbf5-46a0-bb62-b20bb2307a1e" d="M110.61,81.85h2a1.63,1.63,0,0,0,1.62-1.62V72.86a1.62,1.62,0,0,0-1.62-1.61h-2A1.61,1.61,0,0,0,109,72.86v7.37a1.62,1.62,0,0,0,1.62,1.62"/><path class="e9e0a748-d8f0-487a-8ed7-7032f03cc092" d="M82.5,68.45A.5.5,0,0,1,82,68V63.47a.5.5,0,0,1,.5-.5h25.71a2.74,2.74,0,1,1,0,5.48Z"/><path class="a8b3ca7b-2667-406f-b47d-4ff2b18b277f" d="M108.21,63.47a2.24,2.24,0,1,1,0,4.48H82.5V63.47h25.71m0-1H82.5a1,1,0,0,0-1,1V68a1,1,0,0,0,1,1h25.71a3.24,3.24,0,1,0,0-6.48Z"/><path class="b3b9b695-b702-4c3a-818e-07f1fd8f6a42" d="M119.85,95.22a.5.5,0,0,1-.5-.5v-9a.5.5,0,0,1,.5-.5h5A6.14,6.14,0,0,1,131,91.34v3.38a.5.5,0,0,1-.5.5Z"/><path class="a8b3ca7b-2667-406f-b47d-4ff2b18b277f" d="M124.83,85.71a5.63,5.63,0,0,1,5.63,5.63v3.38H119.85v-9h5m0-1h-5a1,1,0,0,0-1,1v9a1,1,0,0,0,1,1h10.61a1,1,0,0,0,1-1V91.34a6.63,6.63,0,0,0-6.63-6.63Z"/><path class="e9e0a748-d8f0-487a-8ed7-7032f03cc092" d="M118.85,86.72a.51.51,0,0,1-.17,0L90.16,76.34a.5.5,0,0,1,.17-1H118.4a1,1,0,0,1,.95,1v9.89a.49.49,0,0,1-.21.41A.52.52,0,0,1,118.85,86.72Z"/><path class="a8b3ca7b-2667-406f-b47d-4ff2b18b277f" d="M118.4,75.87a.46.46,0,0,1,.45.46v9.89L90.34,75.87H118.4m0-1H90.34A1,1,0,0,0,90,76.81l28.52,10.35a1,1,0,0,0,.92-.12,1,1,0,0,0,.42-.82V76.33a1.46,1.46,0,0,0-1.45-1.46Z"/><rect class="b3b9b695-b702-4c3a-818e-07f1fd8f6a42" x="17.75" y="91.12" width="40.33" height="11.89" rx="0.5"/><path class="a8b3ca7b-2667-406f-b47d-4ff2b18b277f" d="M57.58,91.62v10.89H18.25V91.62H57.58m0-1H18.25a1,1,0,0,0-1,1v10.89a1,1,0,0,0,1,1H57.58a1,1,0,0,0,1-1V91.62a1,1,0,0,0-1-1Z"/><path class="a1a1b5c5-7cd3-469c-a30d-e28b539d8bf0" d="M99.08,99.42a7.8,7.8,0,1,0-7.79,7.79,7.8,7.8,0,0,0,7.79-7.79"/><path class="b421aa76-0faa-4fef-be18-98705eaf2606" d="M96.52,99.42a5.24,5.24,0,1,0-5.23,5.23,5.24,5.24,0,0,0,5.23-5.23"/><path class="a1a1b5c5-7cd3-469c-a30d-e28b539d8bf0" d="M28.82,91.62h3.23c3,0,5.38,3.49,5.38,7.8s-2.41,7.79-5.38,7.79H28.82c-3,0-5.37-3.49-5.37-7.79s2.41-7.8,5.37-7.8"/><path class="b421aa76-0faa-4fef-be18-98705eaf2606" d="M25.22,99.42c0,2.89,1.61,5.23,3.6,5.23s3.61-2.34,3.61-5.23-1.62-5.24-3.61-5.24-3.6,2.35-3.6,5.24"/><path class="a1a1b5c5-7cd3-469c-a30d-e28b539d8bf0" d="M39.45,91.62h3.23c3,0,5.37,3.49,5.37,7.8s-2.41,7.79-5.37,7.79H39.45c-3,0-5.38-3.49-5.38-7.79s2.41-7.8,5.38-7.8"/><path class="b421aa76-0faa-4fef-be18-98705eaf2606" d="M35.84,99.42c0,2.89,1.61,5.23,3.61,5.23s3.6-2.34,3.6-5.23-1.61-5.24-3.6-5.24-3.61,2.35-3.61,5.24"/><path class="e9e0a748-d8f0-487a-8ed7-7032f03cc092" d="M57.58,103a.5.5,0,0,1-.5-.5v-36A3.57,3.57,0,0,1,60.65,63H87.48a2.74,2.74,0,0,1,2.66,3.39,2.82,2.82,0,0,1-2.79,2.09.13.13,0,0,0-.13.08.14.14,0,0,0,0,.15l2.37,6.42a.59.59,0,0,0,.46.38l21.66,3.6a.5.5,0,0,1,.42.49v21a.5.5,0,0,1-.5.5h-12a2.27,2.27,0,0,1-2.25-2.28,6.69,6.69,0,0,0-6.68-6.64l-.5,0A7,7,0,0,0,84,99.06v2.12A1.83,1.83,0,0,1,82.16,103Z"/><path class="a8b3ca7b-2667-406f-b47d-4ff2b18b277f" d="M87.48,63.47a2.25,2.25,0,0,1,2.18,2.78A2.33,2.33,0,0,1,87.35,68a.65.65,0,0,0-.58,1l2.35,6.38A1.08,1.08,0,0,0,90,76l21.66,3.59v21h-12a1.76,1.76,0,0,1-1.75-1.78,7.18,7.18,0,0,0-7.18-7.14l-.54,0a7.54,7.54,0,0,0-6.63,7.42v2.12a1.33,1.33,0,0,1-1.33,1.33H57.58v-36a3.06,3.06,0,0,1,3.07-3.06H87.48m0-1H60.65a4.07,4.07,0,0,0-4.07,4.06v36a1,1,0,0,0,1,1H82.16a2.33,2.33,0,0,0,2.33-2.33V99.06a6.58,6.58,0,0,1,5.71-6.42l.46,0a6.2,6.2,0,0,1,6.18,6.14,2.77,2.77,0,0,0,2.75,2.78h12a1,1,0,0,0,1-1v-21a1,1,0,0,0-.84-1L90.13,75s-.06,0-.08-.06l-2.21-6A3.24,3.24,0,0,0,90,63.69a3.26,3.26,0,0,0-2.54-1.22Z"/><path class="e9e0a748-d8f0-487a-8ed7-7032f03cc092" d="M81.33,103a.5.5,0,0,1-.5-.5V95.57A10.37,10.37,0,0,1,91.2,85.21h11.47a8.69,8.69,0,0,1,8.28,6l1.14,3.46a.45.45,0,0,1,0,.16v5.72a.5.5,0,0,1-.5.5h-12a2.24,2.24,0,0,1-1.67-.74,2.22,2.22,0,0,1-.57-1.74A5.57,5.57,0,0,0,95.68,94,6.19,6.19,0,0,0,91.18,92C87.42,92,84,95.26,84,98.79v2.39A1.83,1.83,0,0,1,82.16,103Z"/><path class="a8b3ca7b-2667-406f-b47d-4ff2b18b277f" d="M102.67,85.71a8.22,8.22,0,0,1,7.81,5.64l1.14,3.47v5.72h-12a1.74,1.74,0,0,1-1.74-1.93,6.12,6.12,0,0,0-1.81-5,6.72,6.72,0,0,0-4.86-2.09c-3.91,0-7.69,3.3-7.69,7.25v2.39a1.33,1.33,0,0,1-1.33,1.33h-.83V95.57a9.86,9.86,0,0,1,9.87-9.86h11.47m0-1H91.2A10.88,10.88,0,0,0,80.33,95.57v6.94a1,1,0,0,0,1,1h.83a2.33,2.33,0,0,0,2.33-2.33V98.79a6,6,0,0,1,2.06-4.37,7,7,0,0,1,4.63-1.88,5.75,5.75,0,0,1,4.15,1.79,5.1,5.1,0,0,1,1.52,4.18,2.75,2.75,0,0,0,2.74,3h12a1,1,0,0,0,1-1V94.82a1.06,1.06,0,0,0-.05-.31L111.43,91a9.2,9.2,0,0,0-8.76-6.33Z"/><rect class="a3444cfa-e84a-4466-b6f6-cc524babeb58" x="99.64" y="89.15" width="8.86" height="4.05" rx="1.22"/><path class="a8b3ca7b-2667-406f-b47d-4ff2b18b277f" d="M107.28,89.65a.72.72,0,0,1,.72.72V92a.72.72,0,0,1-.72.72h-6.41a.73.73,0,0,1-.73-.72v-1.6a.73.73,0,0,1,.73-.72h6.41m0-1h-6.41a1.73,1.73,0,0,0-1.73,1.72V92a1.73,1.73,0,0,0,1.73,1.72h6.41A1.72,1.72,0,0,0,109,92v-1.6a1.72,1.72,0,0,0-1.72-1.72Z"/><rect class="a3444cfa-e84a-4466-b6f6-cc524babeb58" x="122.57" y="89.13" width="8.93" height="4.07" rx="1.23"/><path class="a8b3ca7b-2667-406f-b47d-4ff2b18b277f" d="M130.27,89.63a.73.73,0,0,1,.73.73V92a.73.73,0,0,1-.73.73H123.8a.73.73,0,0,1-.73-.73V90.36a.73.73,0,0,1,.73-.73h6.47m0-1H123.8a1.74,1.74,0,0,0-1.73,1.73V92a1.74,1.74,0,0,0,1.73,1.73h6.47A1.74,1.74,0,0,0,132,92V90.36a1.74,1.74,0,0,0-1.73-1.73Z"/><path class="b3b9b695-b702-4c3a-818e-07f1fd8f6a42" d="M111.44,95.22a.5.5,0,0,1-.5-.5V79.57a.51.51,0,0,1,.28-.45l7.23-3.69a.46.46,0,0,1,.23-.06.46.46,0,0,1,.22.06l7.24,3.69a.52.52,0,0,1,.27.45V94.72a.5.5,0,0,1-.5.5Z"/><path class="a8b3ca7b-2667-406f-b47d-4ff2b18b277f" d="M118.68,75.87l7.23,3.7V94.72H111.44V79.57l7.24-3.7m0-1a1,1,0,0,0-.46.11L111,78.68a1,1,0,0,0-.55.89V94.72a1,1,0,0,0,1,1h14.47a1,1,0,0,0,1-1V79.57a1,1,0,0,0-.55-.89L119.13,75a1,1,0,0,0-.45-.11Z"/><path class="a3444cfa-e84a-4466-b6f6-cc524babeb58" d="M90,75.5a.49.49,0,0,1-.47-.34l-2-6a.51.51,0,0,1,.06-.45.52.52,0,0,1,.41-.21h20.07a.51.51,0,0,1,.43.24l3.55,6a.5.5,0,0,1,0,.5.48.48,0,0,1-.43.26Z"/><path class="a8b3ca7b-2667-406f-b47d-4ff2b18b277f" d="M108.07,69l3.55,6L90,75l-2-6h20.07m0-1H88a1,1,0,0,0-.81.42,1,1,0,0,0-.14.89l2,6A1,1,0,0,0,90,76h0l21.62-.1a1,1,0,0,0,.87-.51,1,1,0,0,0,0-1l-3.55-5.94a1,1,0,0,0-.86-.49Z"/><path class="a3444cfa-e84a-4466-b6f6-cc524babeb58" d="M75.47,78.44a2,2,0,0,1-2-2V69.68a2,2,0,0,1,2-2H83A2,2,0,0,1,84.79,69l2.58,6.81a1.95,1.95,0,0,1-1.82,2.64Z"/><path class="a8b3ca7b-2667-406f-b47d-4ff2b18b277f" d="M83,68.23a1.44,1.44,0,0,1,1.35.93L86.9,76a1.45,1.45,0,0,1-1.35,2H75.47A1.45,1.45,0,0,1,74,76.49V69.68a1.45,1.45,0,0,1,1.45-1.45H83m0-1h-7.5A2.45,2.45,0,0,0,73,69.68v6.81a2.45,2.45,0,0,0,2.45,2.45H85.55a2.46,2.46,0,0,0,2.29-3.32l-2.58-6.81A2.46,2.46,0,0,0,83,67.23Z"/><rect class="e9e0a748-d8f0-487a-8ed7-7032f03cc092" x="77.84" y="70.75" width="6.26" height="11.6" rx="2.12"/><path class="a8b3ca7b-2667-406f-b47d-4ff2b18b277f" d="M82,71.25a1.61,1.61,0,0,1,1.62,1.61v7.37A1.62,1.62,0,0,1,82,81.85H80a1.62,1.62,0,0,1-1.62-1.62V72.86A1.61,1.61,0,0,1,80,71.25h2m0-1H80a2.61,2.61,0,0,0-2.62,2.61v7.37A2.62,2.62,0,0,0,80,82.85h2a2.62,2.62,0,0,0,2.62-2.62V72.86A2.61,2.61,0,0,0,82,70.25Z"/><path class="a0a7e6ec-3372-418d-8f2b-83b0676c9f2a" d="M100.54,94.72h29.92v3.52a2.33,2.33,0,0,1-2.33,2.33H100.54a2.63,2.63,0,0,1-2.64-2.63c0-1.46,1.18-3.22,2.64-3.22"/><path class="b3b9b695-b702-4c3a-818e-07f1fd8f6a42" d="M69.15,93.21a4.69,4.69,0,0,1-4.68-4.68V46.45A.5.5,0,0,1,65,46h4.18a.5.5,0,0,1,.5.5V92.71A.51.51,0,0,1,69.15,93.21Z"/><path class="a8b3ca7b-2667-406f-b47d-4ff2b18b277f" d="M69.15,46.45V92.71A4.18,4.18,0,0,1,65,88.53V46.45h4.18m0-1H65a1,1,0,0,0-1,1V88.53a5.18,5.18,0,0,0,5.18,5.18,1,1,0,0,0,1-1V46.45a1,1,0,0,0-1-1Z"/><line class="a0a7e6ec-3372-418d-8f2b-83b0676c9f2a" x1="114.68" y1="78.03" x2="114.68" y2="94.5"/><line class="a0a7e6ec-3372-418d-8f2b-83b0676c9f2a" x1="118.68" y1="76.03" x2="118.68" y2="94.5"/><line class="a0a7e6ec-3372-418d-8f2b-83b0676c9f2a" x1="122.68" y1="78.03" x2="122.68" y2="94.5"/></svg>