<svg xmlns="http://www.w3.org/2000/svg" width="141.42" height="188.79" viewBox="0 0 141.42 188.79" preserveAspectRatio="xMinYMin meet"><defs><style>.b8a3d868-ab30-47fb-95ca-eafbe20a758d {fill: #405e7c;}.e40c8af0-3025-4d41-b0a0-1cff380ba34a {fill: #304c6b;}.ee71c6ac-5b8c-42e0-baba-60c8287b0eb8 {fill: #70a2f2;}
</style></defs><g id="fdcebb4e-0af1-443e-84a3-414446ecc7e9" data-name="Layer 2"><g id="bcb72e69-7bc3-47e1-ab42-2e80acd6c1f6" data-name="Layer 1"><path class="b8a3d868-ab30-47fb-95ca-eafbe20a758d" d="M9,185c1.14-.11,2.41-.17,3.87-.17,11.76,0,11.76,4,23.52,4s11.76-4,23.52-4,11.76,4,23.52,4,11.77-4,23.53-4c10.39,0,11.61,3.13,19.87,3.85a28.67,28.67,0,0,0,13.72-24.4H0A28.53,28.53,0,0,0,9,185Z"/><path class="b8a3d868-ab30-47fb-95ca-eafbe20a758d" d="M79.75,111.9c-4.16,23.75-9.61,33.23-9.5,33.45H136.2C124,89.46,100.5,40.43,70.25.91,86,50.72,83.5,88.44,79.75,111.9Z"/><path class="b8a3d868-ab30-47fb-95ca-eafbe20a758d" d="M70.25,164.65a.41.41,0,0,1-.41-.41V.91a.41.41,0,1,1,.82,0V164.24A.41.41,0,0,1,70.25,164.65Z"/><path class="b8a3d868-ab30-47fb-95ca-eafbe20a758d" d="M70.25,165.15a.91.91,0,0,1-.91-.91V.91a.91.91,0,1,1,1.82,0V164.24A.91.91,0,0,1,70.25,165.15Z"/><path class="b8a3d868-ab30-47fb-95ca-eafbe20a758d" d="M140.5,145.76H70.25a.41.41,0,0,1-.41-.41.41.41,0,0,1,.41-.41H140.5a.42.42,0,0,1,.42.41A.41.41,0,0,1,140.5,145.76Z"/><path class="b8a3d868-ab30-47fb-95ca-eafbe20a758d" d="M140.5,146.26H70.25a.91.91,0,0,1,0-1.82H140.5a.91.91,0,1,1,0,1.82Z"/><path class="e40c8af0-3025-4d41-b0a0-1cff380ba34a" d="M0,164.24a28.36,28.36,0,0,0,.79,6.62H139.72a28.36,28.36,0,0,0,.78-6.62H0Z"/><polygon class="e40c8af0-3025-4d41-b0a0-1cff380ba34a" points="122.59 164.24 114.34 153.32 77.83 153.32 77.83 164.24 122.59 164.24"/><circle class="ee71c6ac-5b8c-42e0-baba-60c8287b0eb8" cx="90.06" cy="162.75" r="4.8"/><circle class="ee71c6ac-5b8c-42e0-baba-60c8287b0eb8" cx="105.01" cy="162.75" r="4.8"/></g></g></svg>