<svg xmlns="http://www.w3.org/2000/svg" width="300" height="56.67" viewBox="0 0 300 56.67" preserveAspectRatio="xMinYMin meet"><defs><style>.b6423172-3abb-439e-bf8e-f01aec76ae1e {fill: #405e7c;}.a354f637-ec24-4f6d-a26b-df5a3fabcb0f {fill: #6bacfb;}
</style></defs><g id="ba9c4e76-4eff-486b-a090-14c8ec78f2db" data-name="Layer 2"><g id="b0fb51ec-2e6a-4301-b7f3-420882e136d5" data-name="Layer 1"><path class="b6423172-3abb-439e-bf8e-f01aec76ae1e" d="M219.41,17.45l2,1.05a9.29,9.29,0,0,1,.44-1.5c-1.56-3.55-4.46-3-4.46-3l-.86-1.18a3.82,3.82,0,0,1,2,.28c-.62-2.78-4.52-3.66-6-1.54-.22-.58-.94-2.48-2.79-1-2.46-1.22-3.59.18-3.54,2.69a6.48,6.48,0,0,0-4.95,2.88,8.5,8.5,0,0,1,1.1.22,4.76,4.76,0,0,0-.58,2.71,16.33,16.33,0,0,1,2.37-2,6.92,6.92,0,0,0-.8,2.27s1.25-.53,2.55-.94c-3.61,3.13-3,5.88-3,5.88l1.16-1.19a7.58,7.58,0,0,0,.45,1.43A10.36,10.36,0,0,1,207,21.36l.12,1.21a41,41,0,0,1,3-3.17,27.65,27.65,0,0,0-.34,5.39l.72-.45.49.53c-.54,13-2.62,30.48-2.62,30.48h2.24s2.06-17.45,2.6-30.43l.05,0,.34-1.39,1.14,1.09s.14-1.66-1.32-5.41a49,49,0,0,1,4.08,6l.71-1.26A3.91,3.91,0,0,1,220,25a6.21,6.21,0,0,0-.43-2.76l1.08-.34-4.71-3.51,2,.21-.08-1.27,1.43,1.16Z"/><path class="a354f637-ec24-4f6d-a26b-df5a3fabcb0f" d="M300,29.47s-113.88,27.2-145.6,27.2H300"/><path class="b6423172-3abb-439e-bf8e-f01aec76ae1e" d="M249.56,20.55l1.27-.39s-4-3.67-8.09-.21a11,11,0,0,0-1.43-2.55l-1,1.12L238,16.45s-2,2.61.18,7.18c0,0-6.49-4.42-8.41,1.76a10.69,10.69,0,0,1,2.45-1.12l-.18,1.12a4.51,4.51,0,0,1,2.45-.45c-.51,1.23,2.3,2.18,2.3,2.18s-6.35,1.34-4.93,7.43a7.36,7.36,0,0,1,2.45-1.86l.45,1,1-2.35.71.87s1.38-3,2.85-3.9a17.08,17.08,0,0,0-.23,6.58l1.07-1.2.85,1.58L242.31,34c2,10.35,3.3,17.77,3.32,17.85l2.19-.37c0-.09-1.32-7.31-3.24-17.44l.29-.66,1.73.93s-.27-4.12-1.91-5.94a17.52,17.52,0,0,1,3.52,2.29,6.91,6.91,0,0,0,0-2.85,9.34,9.34,0,0,1,1.35.69L249,27.21l.55.13s.29-1.75-3.13-3.88a6.37,6.37,0,0,1,3.64-.57l-1.29-.9h1.69Z"/><path class="b6423172-3abb-439e-bf8e-f01aec76ae1e" d="M58.11,7.56l2,1.08a10.27,10.27,0,0,1,.46-1.49c-1.5-3.58-4.41-3.08-4.41-3.08L55.3,2.88a3.77,3.77,0,0,1,2,.31c-.58-2.79-4.47-3.73-6-1.63-.21-.58-.9-2.48-2.77-1C46.1-.71,45,.67,45,3.18A6.5,6.5,0,0,0,40,6a7.43,7.43,0,0,1,1.09.23,4.78,4.78,0,0,0-.61,2.7,16.92,16.92,0,0,1,2.4-2A6.89,6.89,0,0,0,42,9.23s1.25-.51,2.55-.9c-3.64,3.08-3,5.83-3,5.83L42.71,13a7.67,7.67,0,0,0,.43,1.44,10.22,10.22,0,0,1,2.53-3.12l.09,1.21A42.23,42.23,0,0,1,48.83,9.4a27.37,27.37,0,0,0-.41,5.37l.72-.43.49.54c-.73,13-3.05,30.44-3.05,30.44l2.24,0s2.3-17.42,3-30.4l0,.06.36-1.39,1.13,1.1s.16-1.65-1.25-5.43a49,49,0,0,1,4,6l.73-1.25a4,4,0,0,1,1.74,1.06,6.3,6.3,0,0,0-.4-2.76l1.09-.33L54.62,8.48l2,.24-.06-1.27L58,8.62Z"/><path class="a354f637-ec24-4f6d-a26b-df5a3fabcb0f" d="M0,29.47s113.88,27.2,145.6,27.2H0"/></g></g></svg>