<svg xmlns="http://www.w3.org/2000/svg" width="141.59" height="7.24" viewBox="0 0 141.59 7.24" preserveAspectRatio="xMinYMin meet"><defs><style>.a3723a44-0804-419b-af64-0e71e5205e90 {fill: #405e7c;}
</style></defs><g id="a507efff-32d0-414f-a9cc-c266f9ab2d09" data-name="Layer 2"><g id="e073278d-124d-4a13-83ab-f49a517621d4" data-name="Layer 1"><path class="a3723a44-0804-419b-af64-0e71e5205e90" d="M3.91,7.24A30,30,0,0,1,0,7L.38,4A20,20,0,0,0,12.11,2.41,28.47,28.47,0,0,1,24,0,33,33,0,0,1,36.22,2.08,29.84,29.84,0,0,0,47.5,4,29.92,29.92,0,0,0,58.78,2.08,32.85,32.85,0,0,1,71,0,33,33,0,0,1,83.27,2.08,29.82,29.82,0,0,0,94.54,4a29.84,29.84,0,0,0,11.28-1.92A33,33,0,0,1,118.07,0a32.85,32.85,0,0,1,12.24,2.08A29.92,29.92,0,0,0,141.59,4V7a32.85,32.85,0,0,1-12.24-2.08A29.92,29.92,0,0,0,118.07,3a29.88,29.88,0,0,0-11.28,1.92A33,33,0,0,1,94.54,7,32.93,32.93,0,0,1,82.3,4.92,29.88,29.88,0,0,0,71,3,29.92,29.92,0,0,0,59.74,4.92,32.85,32.85,0,0,1,47.5,7,33,33,0,0,1,35.25,4.92,29.88,29.88,0,0,0,24,3,25.65,25.65,0,0,0,13.21,5.2,22.57,22.57,0,0,1,3.91,7.24Z"/></g></g></svg>