<svg xmlns="http://www.w3.org/2000/svg" width="94.09" height="7" viewBox="0 0 94.09 7" preserveAspectRatio="xMinYMin meet"><defs><style>.b44a3e7e-7fb4-4e6d-9fa2-ce719e8c50ab {fill: #405e7c;}
</style></defs><g id="e71d5afa-587d-408a-bb4c-25494d663411" data-name="Layer 2"><g id="f0018ac1-f694-4d4e-a6b6-495e08950448" data-name="Layer 1"><path class="b44a3e7e-7fb4-4e6d-9fa2-ce719e8c50ab" d="M94.09,7A32.85,32.85,0,0,1,81.85,4.92,29.92,29.92,0,0,0,70.57,3,29.88,29.88,0,0,0,59.29,4.92,32.93,32.93,0,0,1,47.05,7,33,33,0,0,1,34.8,4.92,29.84,29.84,0,0,0,23.52,3,29.82,29.82,0,0,0,12.25,4.92,33,33,0,0,1,0,7V4A29.88,29.88,0,0,0,11.28,2.08,32.89,32.89,0,0,1,23.52,0,33,33,0,0,1,35.77,2.08,29.84,29.84,0,0,0,47.05,4,29.82,29.82,0,0,0,58.32,2.08,33,33,0,0,1,70.57,0,32.85,32.85,0,0,1,82.81,2.08,29.92,29.92,0,0,0,94.09,4Z"/></g></g></svg>