<?xml version="1.0" encoding="utf-8"?>
<!-- Generator: Adobe Illustrator 26.0.3, SVG Export Plug-In . SVG Version: 6.00 Build 0)  -->
<svg version="1.1" id="Layer_1" xmlns="http://www.w3.org/2000/svg" xmlns:xlink="http://www.w3.org/1999/xlink" x="0px" y="0px"
	 viewBox="0 0 91 52" style="enable-background:new 0 0 91 52;" xml:space="preserve">
<style type="text/css">
	.st0{fill:#8FD8F2;}
	.st1{fill:#2D2D2D;}
	.st2{fill:#FFFFFF;}
	.st3{fill:none;stroke:#2D2D2D;stroke-linecap:round;stroke-linejoin:round;stroke-miterlimit:10;}
	.st4{fill:#8FD8F2;stroke:#2D2D2D;stroke-linecap:round;stroke-linejoin:round;stroke-miterlimit:10;}
</style>
<g>
	<g>
		<path class="st0" d="M17,51.5c-0.2,0-0.4-0.1-0.5-0.4L1.9,1.4c0-0.2,0-0.3,0.1-0.4c0.1-0.1,0.2-0.2,0.4-0.2c0,0,75.6,0.7,75.6,0.7
			c0.3,0,0.5,0.2,0.5,0.5v49c0,0.3-0.2,0.5-0.5,0.5H17z"/>
		<path class="st1" d="M2.4,1.3L78,2v49H17L2.4,1.3 M2.4,0.3c-0.3,0-0.6,0.1-0.8,0.4C1.4,0.9,1.3,1.2,1.4,1.5L16,51.3
			c0.1,0.4,0.5,0.7,1,0.7h61c0.6,0,1-0.4,1-1V2c0-0.5-0.4-1-1-1L2.4,0.3C2.4,0.3,2.4,0.3,2.4,0.3L2.4,0.3z"/>
	</g>
	<g>
		<g>
			<path class="st2" d="M24,38.5c-0.3,0-0.5-0.2-0.5-0.5V26c0-0.3,0.2-0.5,0.5-0.5h27c0.3,0,0.5,0.2,0.5,0.5v12
				c0,0.3-0.2,0.5-0.5,0.5H24z"/>
			<path class="st1" d="M51,26v12H24V26H51 M51,25H24c-0.6,0-1,0.4-1,1v12c0,0.6,0.4,1,1,1h27c0.6,0,1-0.4,1-1V26
				C52,25.4,51.6,25,51,25L51,25z"/>
		</g>
	</g>
	<g>
		<g>
			<path class="st2" d="M23,39.5c-0.3,0-0.5-0.2-0.5-0.5v-2c0-0.3,0.2-0.5,0.5-0.5h29c0.3,0,0.5,0.2,0.5,0.5v2
				c0,0.3-0.2,0.5-0.5,0.5H23z"/>
			<path class="st1" d="M52,37v2H23v-2H52 M52,36H23c-0.6,0-1,0.4-1,1v2c0,0.6,0.4,1,1,1h29c0.6,0,1-0.4,1-1v-2
				C53,36.4,52.6,36,52,36L52,36z"/>
		</g>
	</g>
	<g>
		<path class="st2" d="M3,51.5c-0.3,0-0.5-0.2-0.5-0.5V2c0-0.3,0.2-0.5,0.5-0.5h15c0.3,0,0.5,0.2,0.5,0.5v49c0,0.3-0.2,0.5-0.5,0.5
			H3z"/>
		<path class="st1" d="M18,2v49H3V2H18 M18,1H3C2.4,1,2,1.4,2,2v49c0,0.6,0.4,1,1,1h15c0.6,0,1-0.4,1-1V2C19,1.4,18.6,1,18,1L18,1z"
			/>
	</g>
	<g>
		<path class="st2" d="M58,51.5c-0.3,0-0.5-0.2-0.5-0.5V26c0-0.3,0.2-0.5,0.5-0.5h14c0.3,0,0.5,0.2,0.5,0.5v25
			c0,0.3-0.2,0.5-0.5,0.5H58z"/>
		<path class="st1" d="M72,26v25H58V26H72 M72,25H58c-0.6,0-1,0.4-1,1v25c0,0.6,0.4,1,1,1h14c0.6,0,1-0.4,1-1V26
			C73,25.4,72.6,25,72,25L72,25z"/>
	</g>
	<line class="st3" x1="68.5" y1="36.8" x2="68.5" y2="40.6"/>
	<g>
		<path class="st0" d="M35.5,22.6c-2.8,0-5-2.2-5-5v-2.1c0-0.3,0.2-0.5,0.5-0.5h9c0.3,0,0.5,0.2,0.5,0.5v2.1
			C40.5,20.4,38.3,22.6,35.5,22.6z"/>
		<path class="st1" d="M40,15.5v2.1c0,2.5-2,4.5-4.5,4.5s-4.5-2-4.5-4.5v-2.1H40 M40,14.5h-9c-0.6,0-1,0.4-1,1v2.1
			c0,3,2.5,5.5,5.5,5.5s5.5-2.5,5.5-5.5v-2.1C41,14.9,40.6,14.5,40,14.5L40,14.5z"/>
	</g>
	<g>
		<path class="st0" d="M45.5,22.6c-2.8,0-5-2.2-5-5v-2.1c0-0.3,0.2-0.5,0.5-0.5h9c0.3,0,0.5,0.2,0.5,0.5v2.1
			C50.5,20.4,48.3,22.6,45.5,22.6z"/>
		<path class="st1" d="M50,15.5v2.1c0,2.5-2,4.5-4.5,4.5s-4.5-2-4.5-4.5v-2.1H50 M50,14.5h-9c-0.6,0-1,0.4-1,1v2.1
			c0,3,2.5,5.5,5.5,5.5s5.5-2.5,5.5-5.5v-2.1C51,14.9,50.6,14.5,50,14.5L50,14.5z"/>
	</g>
	<g>
		<path class="st0" d="M55.5,22.6c-2.8,0-5-2.2-5-5v-2.1c0-0.3,0.2-0.5,0.5-0.5h9c0.3,0,0.5,0.2,0.5,0.5v2.1
			C60.5,20.4,58.3,22.6,55.5,22.6z"/>
		<path class="st1" d="M60,15.5v2.1c0,2.5-2,4.5-4.5,4.5s-4.5-2-4.5-4.5v-2.1H60 M60,14.5h-9c-0.6,0-1,0.4-1,1v2.1
			c0,3,2.5,5.5,5.5,5.5s5.5-2.5,5.5-5.5v-2.1C61,14.9,60.6,14.5,60,14.5L60,14.5z"/>
	</g>
	<g>
		<path class="st0" d="M65.5,22.6c-2.8,0-5-2.2-5-5v-2.1c0-0.3,0.2-0.5,0.5-0.5h9c0.3,0,0.5,0.2,0.5,0.5v2.1
			C70.5,20.4,68.3,22.6,65.5,22.6z"/>
		<path class="st1" d="M70,15.5v2.1c0,2.5-2,4.5-4.5,4.5s-4.5-2-4.5-4.5v-2.1H70 M70,14.5h-9c-0.6,0-1,0.4-1,1v2.1
			c0,3,2.5,5.5,5.5,5.5s5.5-2.5,5.5-5.5v-2.1C71,14.9,70.6,14.5,70,14.5L70,14.5z"/>
	</g>
	<g>
		<path class="st0" d="M75.5,22.6c-2.8,0-5-2.2-5-5v-2.1c0-0.3,0.2-0.5,0.5-0.5h9c0.3,0,0.5,0.2,0.5,0.5v2.1
			C80.5,20.4,78.3,22.6,75.5,22.6z"/>
		<path class="st1" d="M80,15.5v2.1c0,2.5-2,4.5-4.5,4.5s-4.5-2-4.5-4.5v-2.1H80 M80,14.5h-9c-0.6,0-1,0.4-1,1v2.1
			c0,3,2.5,5.5,5.5,5.5s5.5-2.5,5.5-5.5v-2.1C81,14.9,80.6,14.5,80,14.5L80,14.5z"/>
	</g>
	<g>
		<path class="st0" d="M85.5,22.6c-2.8,0-5-2.2-5-5v-2.1c0-0.3,0.2-0.5,0.5-0.5h9c0.3,0,0.5,0.2,0.5,0.5v2.1
			C90.5,20.4,88.3,22.6,85.5,22.6z"/>
		<path class="st1" d="M90,15.5v2.1c0,2.5-2,4.5-4.5,4.5s-4.5-2-4.5-4.5v-2.1H90 M90,14.5h-9c-0.6,0-1,0.4-1,1v2.1
			c0,3,2.5,5.5,5.5,5.5s5.5-2.5,5.5-5.5v-2.1C91,14.9,90.6,14.5,90,14.5L90,14.5z"/>
	</g>
	<g>
		<path class="st2" d="M2,7.5C1.2,7.5,0.5,6.8,0.5,6V2c0-0.8,0.7-1.5,1.5-1.5H22c0.8,0,1.5,0.7,1.5,1.5V6c0,0.8-0.7,1.5-1.5,1.5H2z"
			/>
		<path class="st1" d="M22,1c0.6,0,1,0.5,1,1V6c0,0.6-0.5,1-1,1H2C1.5,7,1,6.5,1,6V2c0-0.6,0.5-1,1-1H22 M22,0H2C0.9,0,0,0.9,0,2V6
			c0,1.1,0.9,2,2,2H22c1.1,0,2-0.9,2-2V2C24,0.9,23.1,0,22,0L22,0z"/>
	</g>
	<g>
		<path class="st2" d="M24,51.5c-0.3,0-0.5-0.2-0.5-0.5c0-3,2.5-5.5,5.5-5.5h1c3,0,5.5,2.5,5.5,5.5c0,0.3-0.2,0.5-0.5,0.5H24z"/>
		<path class="st1" d="M30,46c2.8,0,5,2.2,5,5v0H24v0c0-2.8,2.2-5,5-5H30 M30,45h-1c-3.3,0-6,2.7-6,6c0,0.6,0.4,1,1,1l11,0
			c0.3,0,0.5-0.1,0.7-0.3c0.2-0.2,0.3-0.4,0.3-0.7C36,47.7,33.3,45,30,45L30,45z"/>
	</g>
	<g>
		<path class="st2" d="M40,51.5c-0.3,0-0.5-0.2-0.5-0.5c0-3,2.5-5.5,5.5-5.5h1c3,0,5.5,2.5,5.5,5.5c0,0.3-0.2,0.5-0.5,0.5H40z"/>
		<path class="st1" d="M46,46c2.8,0,5,2.2,5,5v0H40v0c0-2.8,2.2-5,5-5H46 M46,45h-1c-3.3,0-6,2.7-6,6c0,0.6,0.4,1,1,1l11,0
			c0.3,0,0.5-0.1,0.7-0.3c0.2-0.2,0.3-0.4,0.3-0.7C52,47.7,49.3,45,46,45L46,45z"/>
	</g>
	<g>
		<path class="st0" d="M18,7.5c-0.8,0-1.5-0.7-1.5-1.5V2c0-0.8,0.7-1.5,1.5-1.5H79c0.8,0,1.5,0.7,1.5,1.5V6c0,0.8-0.7,1.5-1.5,1.5
			H18z"/>
		<path class="st1" d="M79,1c0.6,0,1,0.5,1,1V6c0,0.6-0.5,1-1,1H18c-0.6,0-1-0.5-1-1V2c0-0.6,0.5-1,1-1H79 M79,0H18
			c-1.1,0-2,0.9-2,2V6c0,1.1,0.9,2,2,2H79c1.1,0,2-0.9,2-2V2C81,0.9,80.1,0,79,0L79,0z"/>
	</g>
	<g>
		<path class="st2" d="M31,15.5c-0.1,0-0.2,0-0.3-0.1l-12-7c-0.2-0.1-0.3-0.3-0.2-0.6c0.1-0.2,0.3-0.4,0.5-0.4h59
			c0.1,0,0.2,0,0.3,0.1l12,7c0.2,0.1,0.3,0.3,0.2,0.6c-0.1,0.2-0.3,0.4-0.5,0.4H31z"/>
		<path class="st1" d="M78,8l12,7H31L19,8H78 M78,7H19c-0.5,0-0.8,0.3-1,0.7c-0.1,0.4,0.1,0.9,0.5,1.1l12,7C30.6,16,30.8,16,31,16
			h59c0.5,0,0.8-0.3,1-0.7c0.1-0.4-0.1-0.9-0.5-1.1l-12-7C78.4,7,78.2,7,78,7L78,7z"/>
	</g>
	<line class="st4" x1="39.5" y1="7.5" x2="50.5" y2="15.5"/>
	<line class="st4" x1="59.5" y1="7.5" x2="70.5" y2="15.5"/>
</g>
</svg>
