<?xml version="1.0" encoding="utf-8"?>
<!-- Generator: Adobe Illustrator 26.0.3, SVG Export Plug-In . SVG Version: 6.00 Build 0)  -->
<svg version="1.1" id="Layer_6" xmlns="http://www.w3.org/2000/svg" xmlns:xlink="http://www.w3.org/1999/xlink" x="0px" y="0px"
	 viewBox="0 0 478 428.3" style="enable-background:new 0 0 478 428.3;" xml:space="preserve">
<style type="text/css">
	.st0{fill:#FFFFFF;stroke:#2D2D2D;stroke-width:6;stroke-linecap:round;stroke-linejoin:round;stroke-miterlimit:10;}
	.st1{fill:#8FD8F2;}
	.st2{fill:#2D2D2D;}
	.st3{fill:none;stroke:#2D2D2D;stroke-width:6;stroke-linecap:round;stroke-linejoin:round;stroke-miterlimit:10;}
</style>
<g>
	<!-- <g>
		<path class="st0" d="M294.3,417c-13.5-0.7-24.8-6.3-25.9-20.2c-1.3-15.1,10-28.4,25.1-29.7c31.6-2.6,55.5-16.3,106.3-87.1
			c8.8-12.3,26-15.2,38.4-6.3c12.3,8.8,15.2,26,6.3,38.4c-28.3,39.5-50.4,64.4-71.6,80.7c-23,17.8-46.1,21.7-74.9,24.1
			C296.8,417,295.6,417.1,294.3,417z"/>
	</g>
	<path class="st0" d="M470.7,315c-8.2-12.8-25.2-16.6-38-8.4c-43.6,27.8-76.3,46.2-116.3,55.8l-0.1-0.2c10.2-3,18.1-11.8,19.5-23
		c1.9-15.1-8.8-28.8-23.9-30.7c-54.7-6.8-84.9-21.2-111.5-33.9c-37.2-17.7-69.3-28.9-132.9-4.8l0,0c0,0-0.1,0-0.3,0.1
		c-0.2,0.1-0.4,0.1-0.6,0.2c-0.2,0.1-0.3,0.1-0.5,0.2c-8.5,3.3-36.4,21.5-63.2,21.5c0,37,0,133.5,0,133.5h236.5
		c101.8,0,154.3-28.6,222.8-72.3C475.1,344.8,478.9,327.8,470.7,315z"/>
	<g>
		<path class="st0" d="M187.5,346.8c33,6,71.9,10.9,113,16c1.2,0.1,6.9,0.5,8,0.5c0,0,2.5,0,7.5-1"/>
	</g>
	<path class="st0" d="M304.4,350.8l-16.8-2.4l4.3-29.7l16.8,2.4c8.2,1.2,13.9,8.8,12.7,17l0,0C320.2,346.3,312.6,352,304.4,350.8z"
		/> -->
	<circle class="st1" cx="343.1" cy="107.4" r="103.9"/>
	<path class="st2" d="M343.1,214.8c-59.3,0-107.4-48.1-107.4-107.4S283.8,0,343.1,0s107.4,48.1,107.4,107.4
		C450.5,166.7,402.4,214.7,343.1,214.8z M343.1,6.9c-55.5,0-100.5,45-100.5,100.5s45,100.5,100.5,100.5s100.5-45,100.5-100.5
		C443.6,51.9,398.6,7,343.1,6.9z"/>
	<path class="st2" d="M344.9,175.8c-16.8-0.1-32.8-7.1-44.4-19.3c-1.3-1.4-1.2-3.6,0.2-4.9c1.4-1.3,3.6-1.2,4.9,0.2c0,0,0,0,0,0
		c11,11.7,26.6,17.9,42.6,17c9.2,0,17.9-4.2,23.7-11.2c6-8.4,6.6-19.5,1.7-28.6c-4.9-8.2-16.3-12.8-29.6-18.3
		c-15-6.2-25.7-10.5-31.7-20.5c-6.3-10.1-5.8-23,1.2-32.6c6.5-8.4,16.6-13.4,27.2-13.5c14.9-1.1,29.5,4.6,39.6,15.6
		c1.3,1.4,1.1,3.6-0.3,4.9c-1.4,1.3-3.6,1.1-4.9-0.3c-8.8-9.3-21.3-14.2-34-13.3c-8.5,0-16.6,3.9-21.9,10.5
		c-5.5,7.4-5.9,17.4-1,25.1c4.7,7.9,14,11.8,28.1,17.5c14.6,6,27,11.1,33.1,21.2c6.4,11.4,5.7,25.5-1.9,36.2
		c-7,8.8-17.6,14-28.9,14.2C347.4,175.8,346.1,175.8,344.9,175.8z"/>
	<path class="st2" d="M325.2,189c-0.3,0-0.5,0-0.7-0.1c-1.9-0.4-3.1-2.3-2.6-4.1c0,0,0,0,0,0l33.7-154c0.4-1.9,2.3-3.1,4.1-2.6
		c1.9,0.4,3.1,2.3,2.6,4.1l0,0l-33.7,154C328.2,187.8,326.8,189,325.2,189z"/>
	<!-- <line class="st3" x1="36.5" y1="286.8" x2="36.5" y2="424.8"/> -->
</g>
<!-- <polygon class="st2" points="36.5,286.8 3,291.8 5,424.8 36.1,426.6 "/> -->
</svg>
