<?xml version="1.0" encoding="utf-8"?>
<!-- Generator: Adobe Illustrator 26.0.3, SVG Export Plug-In . SVG Version: 6.00 Build 0)  -->
<svg version="1.1" id="Layer_1" xmlns="http://www.w3.org/2000/svg" xmlns:xlink="http://www.w3.org/1999/xlink" x="0px" y="0px"
	 viewBox="0 0 98 55" style="enable-background:new 0 0 98 55;" xml:space="preserve">
<style type="text/css">
	.st0{fill:#FFFFFF;}
	.st1{fill:#2D2D2D;}
	.st2{fill:#8FD8F2;}
	.st3{fill:#8FD8F2;stroke:#2D2D2D;stroke-linecap:round;stroke-linejoin:round;stroke-miterlimit:10;}
	.st4{fill:#2D95E5;}
	.st5{fill:none;stroke:#8FD8F2;stroke-linecap:round;stroke-linejoin:round;stroke-miterlimit:10;}
</style>
<g>
	<g>
		<path class="st0" d="M1,53.5c-0.3,0-0.5-0.2-0.5-0.5V4.1c0-2,1.6-3.6,3.6-3.6h59.4c4.4,0,8,3.6,8,8V53c0,0.3-0.2,0.5-0.5,0.5H1z"
			/>
		<path class="st1" d="M63.5,1C67.6,1,71,4.4,71,8.5V53H1V4.1C1,2.4,2.4,1,4.1,1H63.5 M63.5,0H4.1C1.8,0,0,1.8,0,4.1V53
			c0,0.6,0.4,1,1,1h70c0.6,0,1-0.4,1-1V8.5C72,3.8,68.2,0,63.5,0L63.5,0z"/>
	</g>
	<g>
		<path class="st2" d="M4,53.5c-0.3,0-0.5-0.2-0.5-0.5V4.1c0-2,1.6-3.6,3.6-3.6h63.8c2,0,3.6,1.6,3.6,3.6V53c0,0.3-0.2,0.5-0.5,0.5
			H4z"/>
		<path class="st1" d="M70.9,1C72.6,1,74,2.4,74,4.1V53H4V4.1C4,2.4,5.4,1,7.1,1H70.9 M70.9,0H7.1C4.8,0,3,1.8,3,4.1V53
			c0,0.6,0.4,1,1,1h70c0.6,0,1-0.4,1-1V4.1C75,1.8,73.2,0,70.9,0L70.9,0z"/>
	</g>
	<g>
		<path class="st0" d="M9,48.5c-0.3,0-0.5-0.2-0.5-0.5V5c0-0.3,0.2-0.5,0.5-0.5h61c0.3,0,0.5,0.2,0.5,0.5v43c0,0.3-0.2,0.5-0.5,0.5
			H9z"/>
		<path class="st1" d="M70,5v43H9V5H70 M70,4H9C8.4,4,8,4.4,8,5v43c0,0.6,0.4,1,1,1h61c0.6,0,1-0.4,1-1V5C71,4.4,70.6,4,70,4L70,4z"
			/>
	</g>
	<g>
		<path class="st0" d="M1.6,54.5c-0.6,0-1.1-0.5-1.1-1.1v-3.8c0-0.6,0.5-1.1,1.1-1.1H40c0.2,0,0.3,0.1,0.4,0.2
			c0.4,0.5-0.2,2.9-0.6,4.3c-0.2,0.9-1,1.4-1.9,1.4H1.6z"/>
		<path class="st1" d="M40,49c0.2,0-0.3,2.4-0.7,3.9c-0.2,0.6-0.7,1.1-1.4,1.1H1.6C1.3,54,1,53.7,1,53.4v-3.8C1,49.3,1.3,49,1.6,49
			H40 M40,48H1.6C0.7,48,0,48.7,0,49.6v3.8C0,54.3,0.7,55,1.6,55h36.4c1.1,0,2.1-0.7,2.4-1.8c1.1-4,0.7-4.5,0.5-4.8
			C40.6,48.2,40.3,48,40,48L40,48z"/>
	</g>
	<g>
		<path class="st2" d="M28.5,54.5c-1.1,0-2-0.9-2-2v-2.1c0-1.1,0.9-2,2-2h67.1c1.1,0,2,0.9,2,2v2.1c0,1.1-0.9,2-2,2H28.5z"/>
		<path class="st1" d="M95.5,49c0.8,0,1.5,0.7,1.5,1.5v2.1c0,0.8-0.7,1.5-1.5,1.5H28.5c-0.8,0-1.5-0.7-1.5-1.5v-2.1
			c0-0.8,0.7-1.5,1.5-1.5H95.5 M95.5,48H28.5c-1.4,0-2.5,1.1-2.5,2.5v2.1c0,1.4,1.1,2.5,2.5,2.5h67.1c1.4,0,2.5-1.1,2.5-2.5v-2.1
			C98,49.1,96.9,48,95.5,48L95.5,48z"/>
	</g>
	<line class="st3" x1="38.5" y1="2.5" x2="41.5" y2="2.5"/>
	<g>
		<path class="st4" d="M56,51.5c-0.1,0-0.2,0-0.3-0.1l-3-2c-0.2-0.1-0.3-0.4-0.2-0.6s0.3-0.4,0.5-0.4h18c0.2,0,0.4,0.1,0.5,0.4
			s0,0.4-0.2,0.6l-3,2c-0.1,0.1-0.2,0.1-0.3,0.1H56z"/>
		<path class="st1" d="M71,49l-3,2H56l-3-2H71 M71,48H53c-0.4,0-0.8,0.3-1,0.7c-0.1,0.4,0,0.9,0.4,1.1l3,2c0.2,0.1,0.4,0.2,0.6,0.2
			h12c0.2,0,0.4-0.1,0.6-0.2l3-2c0.4-0.2,0.5-0.7,0.4-1.1C71.8,48.3,71.4,48,71,48L71,48z M71,50L71,50L71,50L71,50z"/>
	</g>
	<g>
		<polyline class="st5" points="22,35.3 22.2,40.9 20.5,48.5 		"/>
		<line class="st5" x1="20.9" y1="5" x2="21.7" y2="25.9"/>
		<polyline class="st5" points="42.2,19.5 62.9,18.5 70.5,15.9 		"/>
		<polyline class="st5" points="9,19.8 21.3,14.8 34.7,18.8 		"/>
		<polyline class="st5" points="66.7,48 50.4,32.6 37.9,27.5 27.8,48 		"/>
		<polyline class="st5" points="50.4,32.6 37.9,33.9 21.6,40.3 9,39 		"/>
		<line class="st5" x1="59.7" y1="41.3" x2="50.4" y2="48"/>
	</g>
	<g>
		<path class="st1" d="M59.5,26.5c-3,0-5.4,2.4-5.4,5.4c0,1.8,1.1,4.1,2.3,6c0,0,0.1,0.1,0.1,0.1c0.2,0.3,0.3,0.5,0.5,0.8
			c0,0,0.1,0.1,0.1,0.1c0.6,0.9,1.2,1.6,1.6,2.1c0,0,0,0,0,0.1c0.1,0.2,0.2,0.3,0.3,0.4c0,0,0,0.1,0.1,0.1c0.1,0.1,0.1,0.2,0.2,0.2
			c0,0,0,0,0,0c0,0.1,0.1,0.1,0.1,0.1s0,0,0.1-0.1c0,0,0,0,0,0c0.4-0.4,1.9-2.3,3.3-4.5c0,0,0,0,0,0l0,0c1.1-1.8,2-3.8,2-5.4
			C64.9,29,62.5,26.5,59.5,26.5z M59.5,29.6c1.3,0,2.4,1.1,2.4,2.4c0,1.3-1.1,2.4-2.4,2.4c-1.3,0-2.4-1.1-2.4-2.4
			C57.1,30.7,58.2,29.6,59.5,29.6z"/>
	</g>
	<g>
		<path class="st1" d="M37.5,13.5c-3,0-5.4,2.4-5.4,5.4c0,1.8,1.1,4.1,2.3,6c0,0,0.1,0.1,0.1,0.1c0.2,0.3,0.3,0.5,0.5,0.8
			c0,0,0.1,0.1,0.1,0.1c0.6,0.9,1.2,1.6,1.6,2.1c0,0,0,0,0,0.1c0.1,0.2,0.2,0.3,0.3,0.4c0,0,0,0.1,0.1,0.1c0.1,0.1,0.1,0.2,0.2,0.2
			c0,0,0,0,0,0c0,0.1,0.1,0.1,0.1,0.1s0,0,0.1-0.1c0,0,0,0,0,0c0.4-0.4,1.9-2.3,3.3-4.5c0,0,0,0,0,0l0,0c1.1-1.8,2-3.8,2-5.4
			C42.9,16,40.5,13.5,37.5,13.5z M37.5,16.6c1.3,0,2.4,1.1,2.4,2.4c0,1.3-1.1,2.4-2.4,2.4c-1.3,0-2.4-1.1-2.4-2.4
			C35.1,17.7,36.2,16.6,37.5,16.6z"/>
	</g>
	<g>
		<path class="st1" d="M22.5,26.5c-3,0-5.4,2.4-5.4,5.4c0,1.8,1.1,4.1,2.3,6c0,0,0.1,0.1,0.1,0.1c0.2,0.3,0.3,0.5,0.5,0.8
			c0,0,0.1,0.1,0.1,0.1c0.6,0.9,1.2,1.6,1.6,2.1c0,0,0,0,0,0.1c0.1,0.2,0.2,0.3,0.3,0.4c0,0,0,0.1,0.1,0.1c0.1,0.1,0.1,0.2,0.2,0.2
			c0,0,0,0,0,0c0,0.1,0.1,0.1,0.1,0.1s0,0,0.1-0.1c0,0,0,0,0,0c0.4-0.4,1.9-2.3,3.3-4.5c0,0,0,0,0,0l0,0c1.1-1.8,2-3.8,2-5.4
			C27.9,29,25.5,26.5,22.5,26.5z M22.5,29.6c1.3,0,2.4,1.1,2.4,2.4c0,1.3-1.1,2.4-2.4,2.4s-2.4-1.1-2.4-2.4
			C20.1,30.7,21.2,29.6,22.5,29.6z"/>
	</g>
	<g>
		<path class="st1" d="M70,5v43H9V5H70 M70,4H9C8.4,4,8,4.4,8,5v43c0,0.6,0.4,1,1,1h61c0.6,0,1-0.4,1-1V5C71,4.4,70.6,4,70,4L70,4z"
			/>
	</g>
</g>
</svg>
