<?xml version="1.0" encoding="utf-8"?>
<!-- Generator: Adobe Illustrator 26.0.3, SVG Export Plug-In . SVG Version: 6.00 Build 0)  -->
<svg version="1.1" id="Layer_1" xmlns="http://www.w3.org/2000/svg" xmlns:xlink="http://www.w3.org/1999/xlink" x="0px" y="0px"
	 viewBox="0 0 114.5 55.9" style="enable-background:new 0 0 114.5 55.9;" xml:space="preserve">
<style type="text/css">
	.st0{fill:#FFFFFF;}
	.st1{fill:#2D2D2D;}
	.st2{fill:#8FD8F2;}
	.st3{fill:none;stroke:#2D2D2D;stroke-linecap:round;stroke-linejoin:round;stroke-miterlimit:10;}
	.st4{fill:#FFFFFF;stroke:#2D2D2D;stroke-linecap:round;stroke-linejoin:round;stroke-miterlimit:10;}
	.st5{fill:#FFFFFF;stroke:#2D2D2D;stroke-width:0.9358;stroke-linecap:round;stroke-linejoin:round;stroke-miterlimit:10;}
	.st6{fill:#8FD8F2;stroke:#2D2D2D;stroke-linecap:round;stroke-linejoin:round;stroke-miterlimit:10;}
</style>
<g>
	<g>
		<g>
			<path class="st0" d="M7.5,4.5C7.2,4.5,7,4.3,7,4V1c0-0.3,0.2-0.5,0.5-0.5h61C68.8,0.5,69,0.7,69,1v3c0,0.3-0.2,0.5-0.5,0.5H7.5z"
				/>
			<path class="st1" d="M68.5,1v3h-61V1H68.5 M68.5,0h-61c-0.6,0-1,0.4-1,1v3c0,0.6,0.4,1,1,1h61c0.6,0,1-0.4,1-1V1
				C69.5,0.4,69.1,0,68.5,0L68.5,0z"/>
		</g>
		<g>
			<path class="st2" d="M67.5,4.5C67.2,4.5,67,4.3,67,4V1c0-0.3,0.2-0.5,0.5-0.5h12C79.8,0.5,80,0.7,80,1v3c0,0.3-0.2,0.5-0.5,0.5
				H67.5z"/>
			<path class="st1" d="M79.5,1v3h-12V1H79.5 M79.5,0h-12c-0.6,0-1,0.4-1,1v3c0,0.6,0.4,1,1,1h12c0.6,0,1-0.4,1-1V1
				C80.5,0.4,80.1,0,79.5,0L79.5,0z"/>
		</g>
		<g>
			<line class="st3" x1="12" y1="4.5" x2="12" y2="8.6"/>
		</g>
		<g>
			<line class="st3" x1="29" y1="4.5" x2="29" y2="8.6"/>
		</g>
		<g>
			<line class="st3" x1="47" y1="4.5" x2="47" y2="8.6"/>
		</g>
		<g>
			<line class="st3" x1="64" y1="4.5" x2="64" y2="8.6"/>
		</g>
		<g>
			<line class="st3" x1="77" y1="4.5" x2="77" y2="8.6"/>
		</g>
		<g>
			<path class="st1" d="M38.6,55c-2.9,0-5.2-3.2-5.2-7.1c0-3.8,2.3-7,5.1-7h2.8c2.8,0,5.1,3.1,5.1,7c0,3.9-2.3,7.1-5.1,7.1H38.6z"/>
			<path class="st1" d="M41.3,41.5c2.5,0,4.6,2.9,4.6,6.4c0,3.6-2,6.6-4.6,6.6h-2.8c-2.5,0-4.7-3-4.7-6.6c0-3.6,2.1-6.4,4.6-6.4
				H41.3 M41.3,40.5h-2.8c-3.1,0-5.6,3.4-5.6,7.5c0,4.2,2.6,7.6,5.7,7.6h2.8c3.1,0,5.6-3.4,5.6-7.6C46.9,43.8,44.4,40.5,41.3,40.5
				L41.3,40.5z"/>
		</g>
		<g>
			<path class="st1" d="M96.7,55c-3.7,0-6.7-3.1-6.7-7c0-3.8,3.1-6.9,7-6.9s7,3.1,7,6.9C104,51.7,100.6,55,96.7,55z"/>
			<path class="st1" d="M97,41.5c3.6,0,6.5,2.9,6.5,6.4s-3.2,6.6-6.8,6.6s-6.2-3-6.2-6.6S93.4,41.5,97,41.5 M97,40.6
				c-4.1,0-7.4,3.3-7.4,7.4c0,4.2,3.1,7.5,7.1,7.5c4.2,0,7.7-3.4,7.7-7.5C104.4,43.9,101.1,40.6,97,40.6L97,40.6z"/>
		</g>
		<g>
			<path class="st2" d="M23.5,49.5c-0.3,0-0.5-0.2-0.5-0.5V9c0-0.3,0.2-0.5,0.5-0.5h54.9c4.1,0,7.9,1.6,10.8,4.5l16.6,16.6l4,2
				c2.6,1.3,4.2,3.9,4.2,6.8v7.3c0,2.1-1.7,3.8-3.8,3.8H23.5z"/>
			<path class="st1" d="M78.4,9c3.9,0,7.7,1.6,10.4,4.3L105.5,30l4.1,2c2.4,1.2,3.9,3.7,3.9,6.3v7.3c0,1.8-1.5,3.3-3.3,3.3H23.5V9
				H78.4 M78.4,8H23.5c-0.6,0-1,0.4-1,1v40c0,0.6,0.4,1,1,1h86.7c2.4,0,4.3-1.9,4.3-4.3v-7.3c0-3.1-1.7-5.9-4.5-7.2l-3.9-2
				L89.5,12.6C86.6,9.6,82.6,8,78.4,8L78.4,8z"/>
		</g>
		<polygon class="st0" points="72.5,15.5 92.1,15.5 105,29.5 87.5,29.6 		"/>
		<g>
			<path class="st1" d="M78.4,9c3.9,0,7.7,1.6,10.4,4.3L105.5,30l4.1,2c2.4,1.2,3.9,3.7,3.9,6.3v7.3c0,1.8-1.5,3.3-3.3,3.3H23.5V9
				H78.4 M78.4,8H23.5c-0.6,0-1,0.4-1,1v40c0,0.6,0.4,1,1,1h86.7c2.4,0,4.3-1.9,4.3-4.3v-7.3c0-3.1-1.7-5.9-4.5-7.2l-3.9-2
				L89.5,12.6C86.6,9.6,82.6,8,78.4,8L78.4,8z"/>
		</g>
		<g>
			<g>
				<path class="st1" d="M19.7,55.4c-2.8,0-5.1-3.4-5.1-7.5c0-4.1,2.3-7.4,5.1-7.4h2.8c2.8,0,5.1,3.3,5.1,7.4c0,4.1-2.3,7.5-5.1,7.5
					H19.7z"/>
				<path class="st1" d="M22.4,41c2.5,0,4.6,3.1,4.6,6.9c0,3.8-2.1,7.1-4.7,7.1h-2.6c-2.5,0-4.7-3.2-4.7-7.1c0-3.8,2.1-6.9,4.6-6.9
					H22.4 M22.4,40.1h-2.8c-3.1,0-5.5,3.4-5.5,7.8c0,4.4,2.5,8,5.6,8h2.6c3.1,0,5.6-3.6,5.6-8C27.9,43.5,25.5,40.1,22.4,40.1
					L22.4,40.1z"/>
			</g>
			<g>
				<ellipse class="st0" cx="19.5" cy="48" rx="3.5" ry="5"/>
				<path class="st1" d="M19.5,43.5c1.7,0,3,2,3,4.5s-1.3,4.5-3,4.5s-3-2-3-4.5S17.8,43.5,19.5,43.5 M19.5,42.5c-2.3,0-4,2.4-4,5.5
					s1.8,5.5,4,5.5s4-2.4,4-5.5S21.8,42.5,19.5,42.5L19.5,42.5z"/>
			</g>
		</g>
		<g>
			<path class="st2" d="M29.5,49.5c-1.4,0-2.5-1.1-2.5-2.5v-0.5c0-3.3-2.7-6-6-6s-6,2.7-6,6v1.3c0,0.9-0.8,1.7-1.7,1.7
				c-0.6,0-1.1-0.1-1.7-0.3l-4.4-1.6C5.3,46.8,4,45,4,42.9V13.5c0-2.8,2.3-5,5-5h50.4c4.1,0,7.9,1.6,10.8,4.5l16.6,16.6l4,2
				c2.6,1.3,4.2,3.9,4.2,6.8v7.3c0,2.1-1.7,3.8-3.8,3.8H29.5z"/>
			<path class="st1" d="M59.4,9c3.9,0,7.7,1.6,10.4,4.3L86.5,30l4.1,2c2.4,1.2,3.9,3.7,3.9,6.3v7.3c0,1.8-1.5,3.3-3.3,3.3H29.5
				c-1.1,0-2-0.9-2-2v-0.5c0-3.6-2.9-6.5-6.5-6.5s-6.5,2.9-6.5,6.5v1.3c0,0.7-0.5,1.2-1.2,1.2c-0.5,0-1-0.1-1.5-0.3l-4.4-1.6
				c-1.7-0.7-2.9-2.3-2.9-4.2V13.5C4.5,11,6.5,9,9,9H59.4 M59.4,8H9C6,8,3.5,10.5,3.5,13.5v29.4c0,2.3,1.4,4.3,3.5,5.1l4.4,1.6
				c0.6,0.2,1.2,0.3,1.9,0.3c1.2,0,2.2-1,2.2-2.2v-1.3c0-3,2.5-5.5,5.5-5.5s5.5,2.5,5.5,5.5V47c0,1.6,1.3,3,3,3h61.7
				c2.4,0,4.3-1.9,4.3-4.3v-7.3c0-3.1-1.7-5.9-4.5-7.2l-3.9-2L70.5,12.6C67.6,9.6,63.6,8,59.4,8L59.4,8z"/>
		</g>
		<line class="st3" x1="4.5" y1="42.5" x2="113.5" y2="42.5"/>
		<g>
			<path class="st0" d="M4.5,39.5C4.2,39.5,4,39.3,4,39v-6c0-0.3,0.2-0.5,0.5-0.5h1.8c0.9,0,1.7,0.8,1.7,1.7v3.6
				c0,0.9-0.8,1.7-1.7,1.7H4.5z"/>
			<path class="st1" d="M6.3,33c0.7,0,1.2,0.5,1.2,1.2v3.6C7.5,38.5,7,39,6.3,39H4.5v-6H6.3 M6.3,32H4.5c-0.6,0-1,0.4-1,1v6
				c0,0.6,0.4,1,1,1h1.8c1.2,0,2.2-1,2.2-2.2v-3.6C8.5,33,7.5,32,6.3,32L6.3,32z"/>
		</g>
		<path class="st0" d="M76.8,24.9l-9-9.4h-10c-0.5,0-0.8,0.4-0.8,0.8v9.1c0,3.4,2.8,6,6.1,6L76.5,31L76.8,24.9z"/>
		<g>
			<path class="st1" d="M67.5,16l14,15H63.1c-3.1,0-5.6-2.5-5.6-5.6v-8.9c0-0.3,0.2-0.5,0.5-0.5H67.5 M67.5,15H58
				c-0.8,0-1.5,0.7-1.5,1.5v8.9c0,3.6,2.9,6.6,6.6,6.6h18.4c0.4,0,0.8-0.2,0.9-0.6c0.2-0.4,0.1-0.8-0.2-1.1l-14-15
				C68,15.1,67.8,15,67.5,15L67.5,15z"/>
		</g>
		<line class="st4" x1="62.1" y1="35.5" x2="57.9" y2="35.5"/>
		<line class="st4" x1="87.5" y1="29.5" x2="105.5" y2="29.5"/>
		<line class="st4" x1="73" y1="15.5" x2="91.1" y2="15.5"/>
		<g>
			<path class="st2" d="M75.5,33.5c-0.8,0-1.5-0.7-1.5-1.5v-9c0-0.8,0.7-1.5,1.5-1.5S77,22.2,77,23v9C77,32.8,76.3,33.5,75.5,33.5z"
				/>
			<path class="st1" d="M75.5,22c0.6,0,1,0.4,1,1v9c0,0.6-0.4,1-1,1s-1-0.4-1-1v-9C74.5,22.4,74.9,22,75.5,22 M75.5,21
				c-1.1,0-2,0.9-2,2v9c0,1.1,0.9,2,2,2s2-0.9,2-2v-9C77.5,21.9,76.6,21,75.5,21L75.5,21z"/>
		</g>
		<g>
			<g>
				<path class="st1" d="M79,55c-3.9,0-7-3.1-7-7c0-3.8,3.1-6.9,7-6.9s7,3.1,7,6.9C86,51.8,82.8,55,79,55z"/>
				<path class="st1" d="M79,41.5c3.6,0,6.5,2.9,6.5,6.4s-2.9,6.6-6.5,6.6s-6.5-3-6.5-6.6S75.4,41.5,79,41.5 M79,40.6
					c-4.1,0-7.4,3.3-7.4,7.4c0,4.1,3.3,7.5,7.4,7.5c4.1,0,7.4-3.4,7.4-7.5C86.4,43.9,83.1,40.6,79,40.6L79,40.6z"/>
			</g>
			<circle class="st5" cx="79" cy="48" r="4.5"/>
		</g>
		<line class="st6" x1="0.5" y1="18.5" x2="50.5" y2="18.5"/>
		<line class="st6" x1="50.5" y1="28.5" x2="0.5" y2="28.5"/>
		<line class="st6" x1="45" y1="18.5" x2="45" y2="28"/>
		<line class="st6" x1="38" y1="18.5" x2="38" y2="28"/>
		<line class="st6" x1="31" y1="18.5" x2="31" y2="28"/>
		<line class="st6" x1="24" y1="18.5" x2="24" y2="28"/>
		<line class="st6" x1="17" y1="18.5" x2="17" y2="28"/>
		<line class="st6" x1="9.9" y1="18.5" x2="9.9" y2="28"/>
		<line class="st6" x1="4" y1="18.5" x2="4" y2="28"/>
	</g>
	<g>
		<g>
			<path class="st0" d="M111.7,38.5c-0.2,0-0.3-0.1-0.4-0.2l-2-3c-0.1-0.1-0.1-0.3,0-0.5l0.8-2c0.1-0.1,0.2-0.2,0.3-0.3
				c0.1,0,0.1,0,0.2,0c0.1,0,0.2,0,0.2,0.1c0.1,0,1.7,0.8,2.8,3.1c0.3,0.7,0.5,1.5,0.5,2.3c0,0.3-0.2,0.5-0.5,0.5H111.7z"/>
			<path class="st1" d="M110.5,33c0,0,1.5,0.7,2.5,2.9c0.3,0.7,0.5,1.4,0.5,2.1h-1.8l-2-3L110.5,33 M110.5,32c-0.1,0-0.2,0-0.3,0.1
				c-0.3,0.1-0.5,0.3-0.6,0.6l-0.8,2c-0.1,0.3-0.1,0.7,0.1,0.9l2,3c0.2,0.3,0.5,0.4,0.8,0.4h1.8c0.6,0,1-0.4,1-1
				c0-0.9-0.2-1.8-0.6-2.6c-1.2-2.4-2.9-3.3-3-3.3C110.8,32,110.7,32,110.5,32L110.5,32z"/>
		</g>
		<g>
			<path class="st0" d="M93.5,39.5c-1.3,0-2.4-1-2.6-2.2l-0.7-5.2c0-0.2,0.1-0.4,0.2-0.5c0.1-0.1,0.2-0.1,0.3-0.1
				c0.1,0,0.2,0,0.2,0.1l8,4c0.2,0.1,0.3,0.4,0.3,0.6l-1,3c-0.1,0.2-0.3,0.3-0.5,0.3H93.5z"/>
			<path class="st1" d="M90.7,32l8,4l-1,3h-4.2c-1,0-1.9-0.8-2.1-1.8L90.7,32 M90.7,31c-0.2,0-0.4,0.1-0.6,0.2
				c-0.3,0.2-0.5,0.6-0.4,1l0.7,5.2c0.2,1.5,1.5,2.6,3.1,2.6h4.2c0.4,0,0.8-0.3,0.9-0.7l1-3c0.2-0.5-0.1-1-0.5-1.2l-8-4
				C91,31,90.8,31,90.7,31L90.7,31z"/>
		</g>
	</g>
</g>
</svg>
