<svg xmlns="http://www.w3.org/2000/svg" xmlns:xlink="http://www.w3.org/1999/xlink" width="319.89" height="68.8" viewBox="0 0 319.89 68.8" preserveAspectRatio="xMinYMin meet"><defs><style>.ee59ba0d-ac3f-40fa-bb55-11679b0ff774 {fill: none;}.a091ed00-0e25-471e-9e8c-3b4e381f1114 {fill: #21c1b1;}.a7b2dc98-bc71-46b0-ab4d-ba371a4238f4 {fill: #fff;}.faaee48c-50d9-4b09-b214-b03dd4735089 {fill: #009385;}.b0bdfaaf-4c30-4663-bc7b-a749a90f0883 {fill: #1ba199;}.f56d063a-eaf7-4b4f-aabb-561f0a4ee2a5 {fill: #008275;}.a06dd20a-7840-42c3-b7f7-c2d76a486c76 {clip-path: url(#bae3d8eb-7537-4e72-b6c8-baa2349d7f1f);}.ae7115ff-8bae-4778-914f-7a8d90628514 {fill: #042647;}
</style><clipPath id="bae3d8eb-7537-4e72-b6c8-baa2349d7f1f" transform="translate(0 -1.89)"><rect class="ee59ba0d-ac3f-40fa-bb55-11679b0ff774" width="300" height="46.4"/></clipPath></defs><g id="ad14fe91-9a67-40fc-bdb9-cd798f7e1a63" data-name="Layer 2"><g id="f85e6edc-4e5e-4040-9b6d-4c411e43dec3" data-name="Layer 1"><polygon class="a091ed00-0e25-471e-9e8c-3b4e381f1114" points="225.15 43.3 225.15 24.55 237.29 24.55 237.29 31.42 240.2 31.42 240.2 20.75 250.94 20.75 250.94 15.71 255.35 15.71 255.35 22.55 259.17 22.55 259.17 9.68 262.31 9.68 262.31 7.36 268.21 7.36 268.21 9.36 276.4 9.36 276.4 43.3 225.15 43.3"/><circle class="a7b2dc98-bc71-46b0-ab4d-ba371a4238f4" cx="172.3" cy="14.72" r="1.96"/><rect class="faaee48c-50d9-4b09-b214-b03dd4735089" x="172.05" y="17.68" width="0.5" height="24.61"/><path class="faaee48c-50d9-4b09-b214-b03dd4735089" d="M170.92,18.41a1.4,1.4,0,0,0,1.38,1.19,1.38,1.38,0,0,0,1.37-1.19Z" transform="translate(0 -1.89)"/><path class="b0bdfaaf-4c30-4663-bc7b-a749a90f0883" d="M164.45,46.35l10.69-7.88a52.35,52.35,0,0,1,47.53-7.57L272,46.4Z" transform="translate(0 -1.89)"/><circle class="a7b2dc98-bc71-46b0-ab4d-ba371a4238f4" cx="215.36" cy="14.72" r="1.96"/><rect class="faaee48c-50d9-4b09-b214-b03dd4735089" x="215.11" y="17.68" width="0.5" height="24.61"/><path class="faaee48c-50d9-4b09-b214-b03dd4735089" d="M214,18.41a1.4,1.4,0,0,0,2.76,0Z" transform="translate(0 -1.89)"/><path class="f56d063a-eaf7-4b4f-aabb-561f0a4ee2a5" d="M265,46.4A10.36,10.36,0,0,0,246.77,45a10.35,10.35,0,0,0-17.47,0,10.36,10.36,0,0,0-17.48,0,10.35,10.35,0,0,0-17.47,0,10.36,10.36,0,0,0-17.48,0,10.35,10.35,0,0,0-18.23,1.43Z" transform="translate(0 -1.89)"/><g class="a06dd20a-7840-42c3-b7f7-c2d76a486c76"><path class="faaee48c-50d9-4b09-b214-b03dd4735089" d="M288.55,3.82h0a20.49,20.49,0,0,0-16,24.15l1.23,6a20.45,20.45,0,0,0-17.54-4.63h0a20.47,20.47,0,0,0-16,24.15l3.49,17.18,36-7.32,4.13-.84,36-7.32-7.2-35.4A20.48,20.48,0,0,0,288.55,3.82Z" transform="translate(0 -1.89)"/><path class="ae7115ff-8bae-4778-914f-7a8d90628514" d="M260.8,48.41a.15.15,0,0,1-.14-.11L256,32.88a.15.15,0,0,1,.1-.18.15.15,0,0,1,.19.1L261,48.21a.15.15,0,0,1-.1.19Z" transform="translate(0 -1.89)"/><path class="ae7115ff-8bae-4778-914f-7a8d90628514" d="M296.05,45.92a.15.15,0,0,1-.14-.11L286,13.11a.15.15,0,0,1,.1-.19.14.14,0,0,1,.18.1l9.95,32.71a.15.15,0,0,1-.1.18Z" transform="translate(0 -1.89)"/><path class="ae7115ff-8bae-4778-914f-7a8d90628514" d="M290.34,27.12a.1.1,0,0,1-.07,0l-11.9-5.94a.15.15,0,0,1-.07-.21.15.15,0,0,1,.2-.06l11.91,5.95a.15.15,0,0,1-.07.28Z" transform="translate(0 -1.89)"/><path class="ae7115ff-8bae-4778-914f-7a8d90628514" d="M258.63,41.25l-.08,0a.16.16,0,0,1-.05-.21l4.66-7.61a.16.16,0,0,1,.21,0,.16.16,0,0,1,.05.21l-4.67,7.61A.12.12,0,0,1,258.63,41.25Z" transform="translate(0 -1.89)"/><path class="ae7115ff-8bae-4778-914f-7a8d90628514" d="M257.66,38.08l-.08,0-5-3.33a.16.16,0,0,1,0-.21.15.15,0,0,1,.21,0l5,3.33a.16.16,0,0,1,0,.21A.16.16,0,0,1,257.66,38.08Z" transform="translate(0 -1.89)"/></g><path class="a091ed00-0e25-471e-9e8c-3b4e381f1114" d="M0,23.91s15.77-3.65,23.1-1.23l62,23.72L0,46.36Z" transform="translate(0 -1.89)"/><circle class="a7b2dc98-bc71-46b0-ab4d-ba371a4238f4" cx="127.64" cy="14.72" r="1.96"/><rect class="faaee48c-50d9-4b09-b214-b03dd4735089" x="127.38" y="17.68" width="0.5" height="24.61"/><path class="faaee48c-50d9-4b09-b214-b03dd4735089" d="M129,18.41a1.39,1.39,0,0,1-2.75,0Z" transform="translate(0 -1.89)"/><path class="b0bdfaaf-4c30-4663-bc7b-a749a90f0883" d="M135.49,46.35,124.8,38.47A52.37,52.37,0,0,0,77.26,30.9L27.94,46.4Z" transform="translate(0 -1.89)"/><ellipse class="faaee48c-50d9-4b09-b214-b03dd4735089" cx="21.41" cy="14.49" rx="17.82" ry="14.36"/><path class="ae7115ff-8bae-4778-914f-7a8d90628514" d="M21.41,46.44a.15.15,0,0,1-.15-.15V2a.15.15,0,1,1,.3,0V46.29A.15.15,0,0,1,21.41,46.44Z" transform="translate(0 -1.89)"/><path class="ae7115ff-8bae-4778-914f-7a8d90628514" d="M21.41,25.78a.16.16,0,0,1-.11-.05L6.57,8.39a.17.17,0,0,1,0-.22.16.16,0,0,1,.21,0L21.52,25.53a.15.15,0,0,1-.11.25Z" transform="translate(0 -1.89)"/><path class="ae7115ff-8bae-4778-914f-7a8d90628514" d="M21.41,17.11a.16.16,0,0,1-.09,0,.15.15,0,0,1,0-.21L30.81,4.16a.15.15,0,0,1,.24.18L21.53,17.05A.14.14,0,0,1,21.41,17.11Z" transform="translate(0 -1.89)"/><ellipse class="faaee48c-50d9-4b09-b214-b03dd4735089" cx="61.01" cy="21.9" rx="11.44" ry="9.22"/><path class="ae7115ff-8bae-4778-914f-7a8d90628514" d="M61,43.15a.15.15,0,0,1-.15-.15V14.58a.15.15,0,0,1,.15-.15.15.15,0,0,1,.15.15V43A.15.15,0,0,1,61,43.15Z" transform="translate(0 -1.89)"/><path class="ae7115ff-8bae-4778-914f-7a8d90628514" d="M61,29.88a.11.11,0,0,1-.09,0,.15.15,0,0,1,0-.21L70.35,18.5a.15.15,0,1,1,.23.19L61.13,29.82A.14.14,0,0,1,61,29.88Z" transform="translate(0 -1.89)"/><path class="ae7115ff-8bae-4778-914f-7a8d90628514" d="M61,24.31a.16.16,0,0,1-.12-.06l-6.11-8.16a.15.15,0,0,1,.24-.18l6.11,8.16a.15.15,0,0,1,0,.21A.14.14,0,0,1,61,24.31Z" transform="translate(0 -1.89)"/><circle class="a7b2dc98-bc71-46b0-ab4d-ba371a4238f4" cx="84.57" cy="14.72" r="1.96"/><rect class="faaee48c-50d9-4b09-b214-b03dd4735089" x="84.32" y="17.68" width="0.5" height="24.61"/><path class="faaee48c-50d9-4b09-b214-b03dd4735089" d="M86,18.41a1.39,1.39,0,0,1-2.75,0Z" transform="translate(0 -1.89)"/><path class="f56d063a-eaf7-4b4f-aabb-561f0a4ee2a5" d="M34.92,46.4A10.36,10.36,0,0,1,53.16,45a10.36,10.36,0,0,1,17.48,0,10.35,10.35,0,0,1,17.47,0,10.36,10.36,0,0,1,17.48,0,10.35,10.35,0,0,1,17.47,0A10.36,10.36,0,0,1,141.3,46.4Z" transform="translate(0 -1.89)"/></g></g></svg>