<svg xmlns="http://www.w3.org/2000/svg" width="84.96" height="106.19" viewBox="0 0 84.96 106.19" preserveAspectRatio="xMinYMin meet"><defs><style>.a01c7383-5b69-4e26-ae16-8a8b1c71225f {fill: #008275;}.b158edf9-93f7-491d-a65b-7fcf6c1c8675 {fill: #042647;}
</style></defs><g id="b57fe9eb-d1de-4098-8165-35d8e77e7fce" data-name="Layer 2"><g id="f8778363-0ddc-4952-811e-153caeaa704a" data-name="Layer 1"><ellipse class="a01c7383-5b69-4e26-ae16-8a8b1c71225f" cx="42.48" cy="34.54" rx="42.48" ry="34.21"/><path class="b158edf9-93f7-491d-a65b-7fcf6c1c8675" d="M42.48,106.19a.36.36,0,0,1-.36-.36V.36a.36.36,0,1,1,.72,0V105.83A.36.36,0,0,1,42.48,106.19Z"/><path class="b158edf9-93f7-491d-a65b-7fcf6c1c8675" d="M42.48,56.94a.37.37,0,0,1-.27-.13L7.12,15.48a.35.35,0,0,1,0-.5.36.36,0,0,1,.51,0L42.75,56.35a.35.35,0,0,1,0,.5A.33.33,0,0,1,42.48,56.94Z"/><path class="b158edf9-93f7-491d-a65b-7fcf6c1c8675" d="M42.48,36.27a.33.33,0,0,1-.21-.07.36.36,0,0,1-.08-.5L64.88,5.4a.35.35,0,0,1,.5-.07.36.36,0,0,1,.08.5L42.77,36.13A.37.37,0,0,1,42.48,36.27Z"/></g></g></svg>