<svg xmlns="http://www.w3.org/2000/svg" xmlns:xlink="http://www.w3.org/1999/xlink" width="783.64" height="692.2" viewBox="0 0 783.64 692.2" preserveAspectRatio="xMinYMin meet"><defs><style>.aed633fd-8d51-4ea8-823c-b640a64615a0,
	.ff320d5e-8f41-436f-9d69-80a987db3dd4 {fill: none;}.e0762da1-9e9e-4660-9fc7-7a4c103895c5 {fill: #d7f2f8;}.ac5bb045-0bb4-4183-b9fa-936aafc44920 {fill: #fff;}.acba1c2c-adb8-4f51-95d2-96337e624e13 {clip-path: url(#a9131e8d-7585-426a-abde-336491a278bb);}.ba4a05aa-4bc8-410e-9edb-ba4461cda3a6 {clip-path: url(#baf7d838-4c81-4265-adda-6862a645e488);}.f9e89587-e098-482f-b4c5-18e0f54731c3 {fill: #042647;}.ab80b145-ba3d-468a-a7d1-22ba4d364547 {fill: #0f5198;}.a9fc2bf7-4320-497c-9f90-abebeb9a340e {fill: #0a3360;}.b545f078-5b39-43bc-9e03-2729a16c3f65 {clip-path: url(#b34403e7-cc23-4d98-8f55-6879a529594f);}.b162c530-8176-4694-bbf1-b5be8828a149 {clip-path: url(#ee80dcf8-6f13-40d9-853b-b1d9c43488fd);}.be54eaa4-7deb-46fe-b348-722f63a63bb0 {fill: #9ac8ff;}.acc1162e-7e94-4ecf-8e4b-89312f9ee642 {fill: #6bacfb;}.a3e3f4eb-8906-43a0-95b4-bd38929829ea {fill: #405e7c;}.e2b604c2-40c9-4ccf-930b-76894a121b56 {fill: #bfe1eb;}.aed633fd-8d51-4ea8-823c-b640a64615a0 {stroke: #d7f2f8;stroke-miterlimit: 10;stroke-width: 2px;}
</style><clipPath id="a9131e8d-7585-426a-abde-336491a278bb"><path class="ff320d5e-8f41-436f-9d69-80a987db3dd4" d="M391.11,349.35H305.79a74,74,0,1,0,0,148.09H476.42a74,74,0,1,0,0-148.09Z"/></clipPath><clipPath id="baf7d838-4c81-4265-adda-6862a645e488"><polyline class="ff320d5e-8f41-436f-9d69-80a987db3dd4" points="783.64 692.2 783.64 2.2 0 0 0 690"/></clipPath><clipPath id="b34403e7-cc23-4d98-8f55-6879a529594f"><path class="ff320d5e-8f41-436f-9d69-80a987db3dd4" d="M37.14,317.53a17,17,0,1,0,9.41,32.67l101.24-29.11-10.45-32.38Z"/></clipPath><clipPath id="ee80dcf8-6f13-40d9-853b-b1d9c43488fd"><path class="ff320d5e-8f41-436f-9d69-80a987db3dd4" d="M636.41,321.09,737.65,350.2a17,17,0,0,0,9.41-32.67l-100.2-28.82Z"/></clipPath></defs><g id="a7ba07be-c8f4-44ea-a73e-d1f803fb8392" data-name="Layer 2"><g id="a6f51013-f3db-4011-bf54-2f9775c9be37" data-name="Layer 1"><path class="e0762da1-9e9e-4660-9fc7-7a4c103895c5" d="M476.42,349.35H305.79a74,74,0,0,0,0,148.09H476.42a74,74,0,1,0,0-148.09"/><polyline class="ff320d5e-8f41-436f-9d69-80a987db3dd4" points="783.64 692.2 783.64 2.2 0 0 0 690"/><path class="ac5bb045-0bb4-4183-b9fa-936aafc44920" d="M635.85,333.73l8.85-14.24,90.41,54.28A11.84,11.84,0,1,1,721.35,377Z"/><path class="e0762da1-9e9e-4660-9fc7-7a4c103895c5" d="M733.19,379.42a.5.5,0,0,0,.25-.93l-92.32-53.27a.5.5,0,0,0-.68.18.5.5,0,0,0,.18.68l92.32,53.28A.54.54,0,0,0,733.19,379.42Z"/><g class="acba1c2c-adb8-4f51-95d2-96337e624e13"><path class="ac5bb045-0bb4-4183-b9fa-936aafc44920" d="M214.38,423.62l33.94-26.86a116.16,116.16,0,0,1,72.08-25.08H494.14c19.45,0,29-23.67,15-37.18H217Z"/></g><g class="ba4a05aa-4bc8-410e-9edb-ba4461cda3a6"><polyline class="e0762da1-9e9e-4660-9fc7-7a4c103895c5" points="344.28 492.86 295.51 418.59 238.87 450.55"/></g><g class="ba4a05aa-4bc8-410e-9edb-ba4461cda3a6"><polyline class="e0762da1-9e9e-4660-9fc7-7a4c103895c5" points="438.66 492.86 487.43 418.59 544.07 450.55"/></g><g class="ba4a05aa-4bc8-410e-9edb-ba4461cda3a6"><path class="e0762da1-9e9e-4660-9fc7-7a4c103895c5" d="M508,492a86.85,86.85,0,0,0-5.36-62.22"/><path class="e0762da1-9e9e-4660-9fc7-7a4c103895c5" d="M502.59,429.75A38.77,38.77,0,0,0,467.73,408H314.48a38.77,38.77,0,0,0-34.86,21.8A86.85,86.85,0,0,0,274.26,492"/><path class="e0762da1-9e9e-4660-9fc7-7a4c103895c5" d="M508,492a86.85,86.85,0,0,0-5.36-62.22"/><path class="e0762da1-9e9e-4660-9fc7-7a4c103895c5" d="M502.59,429.75A38.77,38.77,0,0,0,467.73,408H314.48a38.77,38.77,0,0,0-34.86,21.8A86.85,86.85,0,0,0,274.26,492"/></g><path class="f9e89587-e098-482f-b4c5-18e0f54731c3" d="M157.47,280.39l-17.76,5.33-5.12-17.08a4.78,4.78,0,0,1,3.21-5.95l8.6-2.58a4.79,4.79,0,0,1,5.95,3.21Z"/><path class="f9e89587-e098-482f-b4c5-18e0f54731c3" d="M142.76,265.63a2,2,0,0,1-1.91-1.43l-12.56-41.9a9.29,9.29,0,0,0-5-5.77L67.69,191a2,2,0,0,1,1.67-3.63L125,212.9a13.27,13.27,0,0,1,7.17,8.25l12.56,41.91a2,2,0,0,1-1.34,2.49A2.32,2.32,0,0,1,142.76,265.63Z"/><path class="f9e89587-e098-482f-b4c5-18e0f54731c3" d="M317.93,486.43a2.66,2.66,0,1,1-2.66-2.66,2.66,2.66,0,0,1,2.66,2.66"/><path class="f9e89587-e098-482f-b4c5-18e0f54731c3" d="M472,486.43a2.66,2.66,0,1,1-2.66-2.66,2.66,2.66,0,0,1,2.66,2.66"/><path class="ac5bb045-0bb4-4183-b9fa-936aafc44920" d="M147.79,333.87l-8.85-14.24L48.53,373.91a11.84,11.84,0,1,0,13.76,3.21Z"/><path class="e0762da1-9e9e-4660-9fc7-7a4c103895c5" d="M50.45,379.56a.48.48,0,0,1-.43-.25.5.5,0,0,1,.18-.68l92.32-53.27a.5.5,0,0,1,.68.18.5.5,0,0,1-.18.68L50.7,379.5A.54.54,0,0,1,50.45,379.56Z"/><path class="ab80b145-ba3d-468a-a7d1-22ba4d364547" d="M414.44,300.5H303.12a25.68,25.68,0,0,1-18.69-8.1l-9-9.61a59.38,59.38,0,0,0-60-16.53l-78.08,22.45,10.45,32.38,77-22.16A25.51,25.51,0,0,1,250.61,306l9,9.6a59.82,59.82,0,0,0,43.51,18.86H414.44a17,17,0,1,0,0-34"/><path class="a9fc2bf7-4320-497c-9f90-abebeb9a340e" d="M37.14,317.53a17,17,0,1,0,9.41,32.67l101.24-29.11-10.45-32.38Z"/><polyline class="ff320d5e-8f41-436f-9d69-80a987db3dd4" points="783.64 692.2 783.64 2.2 0 0 0 690"/><g class="b545f078-5b39-43bc-9e03-2729a16c3f65"><path class="f9e89587-e098-482f-b4c5-18e0f54731c3" d="M42.1,354.94a.5.5,0,0,1-.5-.5.5.5,0,0,1,.5-.5,20.44,20.44,0,0,0,0-40.88.5.5,0,0,1-.5-.5.5.5,0,0,1,.5-.5,21.44,21.44,0,0,1,0,42.88Z"/></g><path class="f9e89587-e098-482f-b4c5-18e0f54731c3" d="M188.54,331l-39.26,11.77a4.42,4.42,0,0,1-5.49-3l-14.9-49.72a4.4,4.4,0,0,1,3-5.49l39.26-11.77a4.41,4.41,0,0,1,5.49,3l14.9,49.72a4.41,4.41,0,0,1-3,5.49"/><path class="f9e89587-e098-482f-b4c5-18e0f54731c3" d="M55.8,333.5a13.71,13.71,0,1,1-13.7-13.7,13.7,13.7,0,0,1,13.7,13.7"/><rect class="e0762da1-9e9e-4660-9fc7-7a4c103895c5" x="349.6" y="288.01" width="33.48" height="61.33"/><rect class="ac5bb045-0bb4-4183-b9fa-936aafc44920" x="356.6" y="288.01" width="9.31" height="61.33"/><path class="ac5bb045-0bb4-4183-b9fa-936aafc44920" d="M383.08,288c0,3.68-7.49,6.65-16.74,6.65s-16.74-3-16.74-6.65,7.5-6.65,16.74-6.65,16.74,3,16.74,6.65"/><path class="ab80b145-ba3d-468a-a7d1-22ba4d364547" d="M419.65,300.5h61.43a25.68,25.68,0,0,0,18.69-8.1l9-9.61a59.36,59.36,0,0,1,60-16.53l78.08,22.45-10.45,32.38-77-22.16A25.51,25.51,0,0,0,533.59,306l-9,9.6a59.82,59.82,0,0,1-43.51,18.86H419.65a17,17,0,0,1,0-34"/><path class="a9fc2bf7-4320-497c-9f90-abebeb9a340e" d="M747.06,317.53a17,17,0,1,1-9.41,32.67L636.41,321.09l10.45-32.38Z"/><polyline class="ff320d5e-8f41-436f-9d69-80a987db3dd4" points="783.64 692.2 783.64 2.2 0 0 0 690"/><g class="b162c530-8176-4694-bbf1-b5be8828a149"><path class="f9e89587-e098-482f-b4c5-18e0f54731c3" d="M742.11,354.94a21.44,21.44,0,1,1,0-42.88.5.5,0,0,1,.5.5.51.51,0,0,1-.5.5,20.44,20.44,0,1,0,0,40.88.51.51,0,0,1,.5.5A.5.5,0,0,1,742.11,354.94Z"/></g><path class="f9e89587-e098-482f-b4c5-18e0f54731c3" d="M728.4,333.5a13.71,13.71,0,1,0,13.7-13.7,13.7,13.7,0,0,0-13.7,13.7"/><rect class="e0762da1-9e9e-4660-9fc7-7a4c103895c5" x="401.12" y="288.01" width="33.48" height="61.33"/><rect class="ac5bb045-0bb4-4183-b9fa-936aafc44920" x="409.94" y="288.01" width="9.31" height="61.33"/><path class="ac5bb045-0bb4-4183-b9fa-936aafc44920" d="M401.12,288c0,3.68,7.49,6.65,16.74,6.65s16.74-3,16.74-6.65-7.5-6.65-16.74-6.65-16.74,3-16.74,6.65"/><path class="f9e89587-e098-482f-b4c5-18e0f54731c3" d="M411.89,288c0,1.31,2.67,2.37,6,2.37s6-1.06,6-2.37-2.67-2.37-6-2.37-6,1.06-6,2.37"/><path class="f9e89587-e098-482f-b4c5-18e0f54731c3" d="M360,288c0,1.31,2.67,2.37,6,2.37s6-1.06,6-2.37-2.67-2.37-6-2.37-6,1.06-6,2.37"/><path class="f9e89587-e098-482f-b4c5-18e0f54731c3" d="M78.81,166.24v25.35a5.89,5.89,0,0,1-1.57,4L65.41,208.29a10.77,10.77,0,0,1-5.84,3.26l-41.42,8.31A15.16,15.16,0,0,1,0,205V167.58a12.24,12.24,0,0,1,12.25-12.25H67.91a10.9,10.9,0,0,1,10.9,10.91"/><path class="ac5bb045-0bb4-4183-b9fa-936aafc44920" d="M26,187.13A26.82,26.82,0,0,0,45,195H69.49a16.59,16.59,0,0,0,3.32-9.94V166.24a4.91,4.91,0,0,0-4.91-4.91H12.25A6.25,6.25,0,0,0,6,167.58v11.69H7a26.82,26.82,0,0,1,19,7.86"/><path class="be54eaa4-7deb-46fe-b348-722f63a63bb0" d="M15.13,214.16A9.56,9.56,0,0,0,17,214l41.42-8.31A4.86,4.86,0,0,0,61,204.21l7.33-7.84A16.35,16.35,0,0,0,69.49,195H45a26.82,26.82,0,0,1-19-7.86,26.82,26.82,0,0,0-19-7.86H6V205a9.16,9.16,0,0,0,9.13,9.17"/><path class="acc1162e-7e94-4ecf-8e4b-89312f9ee642" d="M324.48,496.17a6.91,6.91,0,0,1,6.9-6.9H453.25a6.91,6.91,0,0,1,6.9,6.9m-1,0a5.9,5.9,0,0,0-5.9-5.9H331.38a5.91,5.91,0,0,0-5.9,5.9"/><polygon class="a9fc2bf7-4320-497c-9f90-abebeb9a340e" points="349.61 300.5 349.61 334.5 342.18 334.5 335.21 300.5 349.61 300.5"/><polygon class="a9fc2bf7-4320-497c-9f90-abebeb9a340e" points="434.6 300.5 434.6 334.5 442.02 334.5 448.99 300.5 434.6 300.5"/><polyline class="ff320d5e-8f41-436f-9d69-80a987db3dd4" points="783.64 692.2 783.64 2.2 0 0 0 690"/><polyline class="ff320d5e-8f41-436f-9d69-80a987db3dd4" points="783.64 692.2 783.64 2.2 0 0 0 690"/><polyline class="ff320d5e-8f41-436f-9d69-80a987db3dd4" points="783.64 692.2 783.64 2.2 0 0 0 690"/><path class="f9e89587-e098-482f-b4c5-18e0f54731c3" d="M626.17,280.25l17.76,5.32,5.12-17.07a4.78,4.78,0,0,0-3.21-5.95l-8.6-2.58a4.78,4.78,0,0,0-6,3.21Z"/><path class="f9e89587-e098-482f-b4c5-18e0f54731c3" d="M640.88,265.49a2,2,0,0,0,1.91-1.43l12.56-41.9a9.29,9.29,0,0,1,5-5.77L716,190.85a2,2,0,1,0-1.67-3.63l-55.59,25.54a13.27,13.27,0,0,0-7.17,8.25L639,262.91a2,2,0,0,0,1.34,2.49A2,2,0,0,0,640.88,265.49Z"/><path class="f9e89587-e098-482f-b4c5-18e0f54731c3" d="M595.1,330.88l39.26,11.76a4.41,4.41,0,0,0,5.49-2.95L654.75,290a4.41,4.41,0,0,0-3-5.49l-39.26-11.76a4.41,4.41,0,0,0-5.49,3l-14.9,49.72a4.41,4.41,0,0,0,3,5.49"/><path class="f9e89587-e098-482f-b4c5-18e0f54731c3" d="M704.83,166.1v25.35a5.89,5.89,0,0,0,1.57,4l11.83,12.69a10.94,10.94,0,0,0,5.84,3.26l41.42,8.31a15.17,15.17,0,0,0,18.15-14.87V167.43a12.24,12.24,0,0,0-12.25-12.24H715.74a10.9,10.9,0,0,0-10.91,10.91"/><path class="ac5bb045-0bb4-4183-b9fa-936aafc44920" d="M757.66,187a26.81,26.81,0,0,1-19,7.85H714.15a16.54,16.54,0,0,1-3.32-9.93V166.1a4.91,4.91,0,0,1,4.91-4.91h55.65a6.24,6.24,0,0,1,6.25,6.24v11.7h-1a26.82,26.82,0,0,0-19,7.86"/><path class="be54eaa4-7deb-46fe-b348-722f63a63bb0" d="M768.51,214a9.56,9.56,0,0,1-1.84-.18l-41.42-8.31a4.81,4.81,0,0,1-2.63-1.47l-7.33-7.84a13.69,13.69,0,0,1-1.14-1.38h24.54a26.81,26.81,0,0,0,19-7.85,26.82,26.82,0,0,1,19-7.86h1v25.72a9.16,9.16,0,0,1-9.13,9.17"/><path class="a3e3f4eb-8906-43a0-95b4-bd38929829ea" d="M143.27,350.32,137.6,324h0a4.62,4.62,0,0,1-5.72-3.15l-6.45-22a20.57,20.57,0,0,0-25.06-14.09L52.29,297.64a19.21,19.21,0,0,0-13.62,13.82l-1.53,6.07h0a24.11,24.11,0,0,1,21.27,4l.46.35A13.17,13.17,0,0,1,64,330.93l.85,7.85a27.56,27.56,0,0,0,6.39,14.88l16.94,19.92A61.57,61.57,0,0,1,129,358.11l19.81,1.07Z"/><path class="ab80b145-ba3d-468a-a7d1-22ba4d364547" d="M108.64,515.37,78.81,368.17h0a35.6,35.6,0,0,1,29.46-31.05l9.53-1.6a74.06,74.06,0,0,1,29.94,1.13h0l96.54,156.21"/><path class="a3e3f4eb-8906-43a0-95b4-bd38929829ea" d="M640.78,350.32,646.45,324h0a4.63,4.63,0,0,0,5.72-3.15l6.45-22a20.57,20.57,0,0,1,25.06-14.09l48.08,12.83a19.18,19.18,0,0,1,13.61,13.82l1.54,6.07h0a24.11,24.11,0,0,0-21.27,4l-.46.35a13.17,13.17,0,0,0-5.12,9.07l-.85,7.85a27.56,27.56,0,0,1-6.39,14.88l-16.94,19.92a61.57,61.57,0,0,0-40.82-15.47l-19.8,1.07Z"/><path class="ab80b145-ba3d-468a-a7d1-22ba4d364547" d="M675.41,515.37l29.82-147.2h0a35.58,35.58,0,0,0-29.46-31.05l-9.52-1.6a74.06,74.06,0,0,0-29.94,1.13h0L539.77,492.86"/><rect class="e0762da1-9e9e-4660-9fc7-7a4c103895c5" x="333.93" y="361.68" width="115.77" height="13.56"/><ellipse class="e2b604c2-40c9-4ccf-930b-76894a121b56" cx="391.82" cy="375.24" rx="57.89" ry="51.36"/><ellipse class="e0762da1-9e9e-4660-9fc7-7a4c103895c5" cx="391.82" cy="366.14" rx="49.08" ry="43.55"/><ellipse class="ac5bb045-0bb4-4183-b9fa-936aafc44920" cx="391.82" cy="371.71" rx="49.08" ry="43.55"/><path class="ac5bb045-0bb4-4183-b9fa-936aafc44920" d="M391.82,314.78c-32,0-57.89,23-57.89,51.36s25.92,51.36,57.89,51.36,57.89-23,57.89-51.36S423.79,314.78,391.82,314.78Zm0,94.91c-27.11,0-49.08-19.5-49.08-43.55s22-43.55,49.08-43.55,49.08,19.5,49.08,43.55S418.93,409.69,391.82,409.69Z"/><ellipse class="aed633fd-8d51-4ea8-823c-b640a64615a0" cx="391.82" cy="366.14" rx="49.08" ry="43.55"/></g></g></svg>