<svg xmlns="http://www.w3.org/2000/svg" width="65.44" height="88.11" viewBox="0 0 65.44 88.11" preserveAspectRatio="xMinYMin meet"><defs><style>.a37d112a-6b73-46aa-8e3a-50c5ea8f8e4a {fill: #c76e39;}
</style></defs><g id="a13072b7-d459-4f4b-861f-62bc9c44d781" data-name="Layer 2"><g id="b5b84e18-e362-416a-a621-1699163451cb" data-name="Layer 1"><path class="a37d112a-6b73-46aa-8e3a-50c5ea8f8e4a" d="M57.65,20.31a7.8,7.8,0,0,0-7.8,7.79v5.46a2.63,2.63,0,0,1-2.63,2.63H43.54V7.79A7.8,7.8,0,0,0,28,7.79v42.8H23.68a8.1,8.1,0,0,1-8.09-8.08V24.41A7.8,7.8,0,0,0,0,24.41v18.1A23.7,23.7,0,0,0,23.68,66.18H28V88.11H43.54V51.78h3.68A18.24,18.24,0,0,0,65.44,33.56V28.1A7.79,7.79,0,0,0,57.65,20.31Z"/></g></g></svg>