<svg xmlns="http://www.w3.org/2000/svg" width="95.16" height="61.83" viewBox="0 0 95.16 61.83" preserveAspectRatio="xMinYMin meet"><defs><style>.b0ef589b-1b09-45a6-b3e2-897a8c5797b3 {fill: #c76e39;}.a9900fdc-88ca-4e60-abee-25bdbdff3097 {fill: #ffa452;}
</style></defs><g id="ef160990-28c1-449f-9328-31a86012eaae" data-name="Layer 2"><g id="b4b1cab6-94bf-4b04-9047-9b91d884f7aa" data-name="Layer 1"><polygon class="b0ef589b-1b09-45a6-b3e2-897a8c5797b3" points="95.16 61.84 48.58 0 11.79 25.63 0 61.01 95.16 61.84"/><polygon class="a9900fdc-88ca-4e60-abee-25bdbdff3097" points="55.41 60.93 49.18 2.13 94.03 61.31 55.41 60.93"/><path class="b0ef589b-1b09-45a6-b3e2-897a8c5797b3" d="M77.45,58.89a.56.56,0,0,1-.35-.11L62.61,48.3a.63.63,0,0,1-.23-.34l-4.19-16.9a.6.6,0,1,1,1.16-.29L63.5,47.46,77.8,57.8a.61.61,0,0,1,.14.84A.6.6,0,0,1,77.45,58.89Z"/></g></g></svg>